<?xml version="1.0" encoding="UTF-8" standalone="no"?>
<!DOCTYPE svg PUBLIC "-//W3C//DTD SVG 1.1//EN" "http://www.w3.org/Graphics/SVG/1.1/DTD/svg11.dtd">
<svg version="1.1" xmlns="http://www.w3.org/2000/svg" xmlns:xlink="http://www.w3.org/1999/xlink" preserveAspectRatio="xMidYMid meet" viewBox="-0.9999999999996625 -1 643.9999999999999 643.9999999999999" ><defs><path d="M563.39 112.57C515.66 56.61 449.02 17.52 373.33 4.8C355.96 1.88 338.21 0 320 0C301.79 0 284.04 1.88 266.67 4.8C190.98 17.52 124.35 56.6 76.6 112.55C53.56 139.58 35.06 170.49 21.96 204.17C7.96 240.13 0 279.09 0 320C0 357.59 6.81 393.51 18.73 427.02C30.85 461.11 48.37 492.58 70.6 520.24C118.67 580.03 187.75 621.94 266.67 635.2C284.04 638.12 301.79 640 320 640C338.21 640 355.96 638.12 373.33 635.2C452.25 621.94 521.33 580.03 569.4 520.25C591.63 492.59 609.15 461.12 621.27 427.03C633.19 393.52 640 357.59 640 320C640 279.1 632.04 240.14 618.06 204.19C604.96 170.51 586.46 139.59 563.39 112.57ZM524.56 258.15C513.96 223.15 494.6 191.96 469.04 167.04C474.69 163.78 519.87 137.7 525.52 134.44C549.37 160.83 568.17 191.76 580.52 225.85C569.33 232.31 530.16 254.92 524.56 258.15ZM320 491.1C225.64 491.1 148.89 414.34 148.89 320C148.89 225.66 225.65 148.9 320 148.9C414.35 148.9 491.1 225.66 491.1 320C491.1 414.34 414.35 491.1 320 491.1ZM373.33 47.93C373.33 54.46 373.33 106.71 373.33 113.24C356.25 108.82 338.44 106.23 320 106.23C301.56 106.23 283.75 108.82 266.67 113.24C266.67 106.71 266.67 54.46 266.67 47.93C283.94 44.55 301.75 42.67 320 42.67C338.25 42.67 356.06 44.55 373.33 47.93ZM170.98 167.04C145.42 191.95 126.04 223.14 115.44 258.13C109.84 254.9 65.07 229.06 59.48 225.83C71.85 191.75 90.64 160.82 114.5 134.43C125.79 140.95 165.33 163.78 170.98 167.04ZM113.04 372.57C122.08 408.15 139.98 440.14 164.37 466.11C158.75 469.35 113.75 495.33 108.12 498.57C85.23 471.44 67.46 439.89 56.25 405.36C67.61 398.8 107.36 375.85 113.04 372.57ZM266.67 592.07C266.67 585.54 266.67 533.29 266.67 526.76C283.75 531.18 301.56 533.77 320 533.77C338.44 533.77 356.25 531.18 373.33 526.76C373.33 533.29 373.33 585.54 373.33 592.07C356.06 595.45 338.25 597.33 320 597.33C301.75 597.33 283.94 595.45 266.67 592.07ZM475.62 466.11C500.02 440.15 517.92 408.15 526.96 372.57C532.64 375.85 578.07 402.09 583.75 405.37C572.54 439.89 554.77 471.44 531.85 498.57C520.61 492.08 481.25 469.35 475.62 466.11Z" id="bjXIXS2Va"></path></defs><g><g><use xlink:href="#bjXIXS2Va" opacity="1" fill="#000000" fill-opacity="1"></use><g><use xlink:href="#bjXIXS2Va" opacity="1" fill-opacity="0" stroke="#000000" stroke-width="1" stroke-opacity="0"></use></g></g></g></svg>