<?xml version="1.0" encoding="UTF-8" standalone="no"?>
<!DOCTYPE svg PUBLIC "-//W3C//DTD SVG 1.1//EN" "http://www.w3.org/Graphics/SVG/1.1/DTD/svg11.dtd">
<svg version="1.1" xmlns="http://www.w3.org/2000/svg" xmlns:xlink="http://www.w3.org/1999/xlink" preserveAspectRatio="xMidYMid meet" viewBox="-1 -1 644 644"><defs><path d="M320 10C148.79 10 10 148.79 10 320C10 491.21 148.79 630 320 630C491.21 630 630 491.21 630 320C630 148.79 491.21 10 320 10Z" id="d26EvCkxQ"></path><path d="M320 190C248.2 190 190 248.2 190 320C190 391.8 248.2 450 320 450C391.8 450 450 391.8 450 320C450 248.2 391.8 190 320 190Z" id="c2PeeoFej"></path><path d="M309.86 96.83C309.86 93.78 309.86 69.44 309.86 66.39C309.86 60.79 314.39 56.25 320 56.25C325.61 56.25 330.15 60.79 330.15 66.39C330.15 69.44 330.15 93.78 330.15 96.83C330.15 102.43 325.61 106.97 320 106.97C314.39 106.97 309.86 102.43 309.86 96.83Z" id="g337abxHbd"></path><path d="M309.86 573.61C309.86 570.56 309.86 546.22 309.86 543.17C309.86 537.57 314.39 533.03 320 533.03C325.61 533.03 330.15 537.57 330.15 543.17C330.15 546.22 330.15 570.56 330.15 573.61C330.15 579.21 325.61 583.75 320 583.75C314.39 583.75 309.86 579.21 309.86 573.61Z" id="m3dFC55yP1"></path><path d="M543.17 330.14C537.57 330.14 533.03 325.61 533.03 320C533.03 314.39 537.57 309.86 543.17 309.86C546.22 309.86 570.56 309.86 573.61 309.86C579.21 309.86 583.75 314.39 583.75 320C583.75 325.61 579.21 330.14 573.61 330.14C567.52 330.14 546.22 330.14 543.17 330.14Z" id="a3BJcehxrD"></path><path d="M66.4 330.14C60.79 330.14 56.25 325.61 56.25 320C56.25 314.39 60.79 309.86 66.4 309.86C69.44 309.86 93.78 309.86 96.83 309.86C102.44 309.86 106.97 314.39 106.97 320C106.97 325.61 102.43 330.14 96.83 330.14C90.74 330.14 69.44 330.14 66.4 330.14Z" id="dcm1hRMkD"></path><path d="M470.64 169.37C466.68 165.41 466.68 158.99 470.64 155.02C472.79 152.87 490 135.65 492.16 133.5C496.12 129.54 502.54 129.54 506.5 133.5C510.46 137.46 510.46 143.88 506.5 147.85C504.35 150 487.14 167.22 484.98 169.37C483 171.35 480.41 172.34 477.81 172.34C475.22 172.34 472.62 171.35 470.64 169.37Z" id="aHwgPqDyA"></path><path d="M133.5 506.5C129.54 502.54 129.54 496.12 133.5 492.15C135.65 490 152.87 472.79 155.02 470.64C158.98 466.67 165.4 466.67 169.36 470.64C173.33 474.6 173.33 481.02 169.36 484.98C167.21 487.13 150 504.35 147.85 506.5C145.86 508.48 143.27 509.47 140.67 509.47C138.08 509.47 135.48 508.48 133.5 506.5Z" id="f5XAEFvufP"></path><path d="M492.16 506.5C490 504.35 472.79 487.13 470.64 484.98C466.67 481.02 466.67 474.6 470.64 470.64C474.6 466.67 481.02 466.67 484.98 470.64C487.13 472.79 504.35 490 506.5 492.15C510.46 496.12 510.46 502.54 506.5 506.5C504.52 508.48 501.92 509.47 499.33 509.47C496.73 509.47 494.14 508.48 492.16 506.5Z" id="b6kHYTioKC"></path><path d="M155.02 169.37C152.87 167.22 135.65 150 133.5 147.85C129.54 143.88 129.54 137.46 133.5 133.5C137.46 129.54 143.88 129.54 147.85 133.5C150 135.65 167.21 152.87 169.36 155.02C173.33 158.99 173.33 165.41 169.36 169.37C167.38 171.35 164.79 172.34 162.19 172.34C159.59 172.34 157 171.35 155.02 169.37Z" id="bQnBhUzd8"></path><path d="M181.45 320C175.05 320 123.89 320 117.5 320C117.5 292.61 122.94 266.39 132.96 242.52C136.89 244.14 156.57 252.28 192 266.92C184.96 289.8 181.45 307.49 181.45 320Z" id="c4GjpYKR9S"></path><path d="M320 181.45C301.24 181.45 283.23 185.18 266.93 192C264.48 186.09 244.96 138.86 242.52 132.95C266.39 122.94 292.61 117.5 320 117.5C320 130.29 320 175.05 320 181.45Z" id="a1EQj3sYAy"></path><path d="M222.06 222.06C217.54 217.54 181.39 181.38 176.87 176.87C195.41 158.21 217.69 143.19 242.52 132.96C244.15 136.89 252.28 156.57 266.93 192C245.47 203.58 230.51 213.6 222.06 222.06Z" id="b5EIGXIHqC"></path><path d="M192 266.92C186.09 264.48 138.86 244.96 132.95 242.52C143.19 217.69 158.21 195.41 176.86 176.87C179.88 179.88 194.94 194.94 222.05 222.06C206.71 240.67 196.69 255.63 192 266.92Z" id="aikpQXCZB"></path><path d="M458.55 320C464.95 320 516.11 320 522.5 320C522.5 292.61 517.06 266.39 507.05 242.52C503.11 244.14 483.43 252.28 448 266.92C455.04 289.8 458.55 307.49 458.55 320Z" id="odmy8Pcs1"></path><path d="M320 181.45C338.76 181.45 356.77 185.18 373.08 192C375.52 186.09 395.04 138.86 397.48 132.95C373.61 122.94 347.39 117.5 320 117.5C320 130.29 320 175.05 320 181.45Z" id="ad4BRzDe2"></path><path d="M417.95 222.06C422.47 217.54 458.62 181.38 463.14 176.87C444.59 158.21 422.32 143.19 397.48 132.96C395.86 136.89 387.72 156.57 373.08 192C394.53 203.58 409.49 213.6 417.95 222.06Z" id="fkKXsoUK"></path><path d="M448 266.92C453.91 264.48 501.14 244.96 507.05 242.52C496.82 217.69 481.79 195.41 463.14 176.87C460.12 179.88 445.06 194.94 417.95 222.06C433.29 240.67 443.31 255.63 448 266.92Z" id="k1kmd03tVm"></path><path d="M458.55 320C464.95 320 516.11 320 522.5 320C522.5 347.39 517.06 373.61 507.05 397.48C503.11 395.86 483.43 387.72 448 373.08C455.04 350.2 458.55 332.51 458.55 320Z" id="d4w2KX6sG"></path><path d="M320 458.55C338.76 458.55 356.77 454.82 373.08 448C375.52 453.91 395.04 501.14 397.48 507.05C373.61 517.06 347.39 522.5 320 522.5C320 509.71 320 464.95 320 458.55Z" id="aZ5oRXxfG"></path><path d="M417.95 417.95C422.47 422.47 458.62 458.62 463.14 463.14C444.59 481.79 422.32 496.82 397.48 507.05C395.86 503.11 387.72 483.43 373.08 448C394.53 436.42 409.49 426.4 417.95 417.95Z" id="blN4iLu1S"></path><path d="M448 373.08C453.91 375.52 501.14 395.04 507.05 397.48C496.82 422.32 481.79 444.59 463.14 463.14C460.12 460.12 445.06 445.06 417.95 417.95C433.29 399.33 443.31 384.37 448 373.08Z" id="c8w8PUEl8"></path><path d="M181.45 320C175.05 320 123.89 320 117.5 320C117.5 347.39 122.94 373.61 132.96 397.48C136.89 395.86 156.57 387.72 192 373.08C184.96 350.2 181.45 332.51 181.45 320Z" id="e14PwQ4zDo"></path><path d="M320 458.55C301.24 458.55 283.23 454.82 266.93 448C264.48 453.91 244.96 501.14 242.52 507.05C266.39 517.06 292.61 522.5 320 522.5C320 509.71 320 464.95 320 458.55Z" id="a13gqw4Vq2"></path><path d="M222.06 417.95C217.54 422.47 181.39 458.62 176.87 463.14C195.41 481.79 217.69 496.82 242.52 507.05C244.15 503.11 252.28 483.43 266.93 448C245.47 436.42 230.51 426.4 222.06 417.95Z" id="a1ThiCG9J"></path><path d="M192 373.08C186.09 375.52 138.86 395.04 132.95 397.48C143.19 422.32 158.21 444.59 176.86 463.14C179.88 460.12 194.94 445.06 222.05 417.95C206.71 399.33 196.69 384.37 192 373.08Z" id="c3aAMS8Loz"></path><path d="M320 0C234.53 0 154.17 33.28 93.73 93.73C33.29 154.17 0 234.53 0 320C0 405.48 33.29 485.83 93.73 546.28C154.17 606.72 234.53 640 320 640C405.48 640 485.83 606.72 546.28 546.28C606.72 485.83 640 405.48 640 320C640 234.53 606.72 154.17 546.28 93.73C485.83 33.28 405.48 0 320 0ZM20 320C20 154.58 154.58 20 320 20C485.42 20 620 154.58 620 320C620 485.42 485.42 620 320 620C154.58 620 20 485.42 20 320Z" id="aVCKX8jT"></path><path d="M320 40C245.21 40 174.9 69.13 122.01 122.01C69.13 174.9 40 245.21 40 320C40 394.79 69.13 465.11 122.01 517.99C174.9 570.88 245.21 600 320 600C394.79 600 465.11 570.88 517.99 517.99C570.88 465.11 600 394.79 600 320C600 245.21 570.88 174.9 517.99 122.01C465.11 69.13 394.79 40 320 40ZM330 570C330 564.48 325.52 560 320 560C314.48 560 310 564.48 310 570C310 570.98 310 578.81 310 579.79C174.57 574.64 65.36 465.43 60.21 330C61.19 330 69.02 330 70 330C75.52 330 80 325.52 80 320C80 314.48 75.52 310 70 310C69.02 310 61.19 310 60.21 310C65.36 174.57 174.57 65.36 310 60.21C310 61.19 310 69.02 310 70C310 75.52 314.48 80 320 80C325.52 80 330 75.52 330 70C330 69.02 330 61.19 330 60.21C465.43 65.36 574.64 174.57 579.79 310C578.81 310 570.98 310 570 310C564.48 310 560 314.48 560 320C560 325.52 564.48 330 570 330C570.98 330 578.81 330 579.79 330C574.64 465.43 465.43 574.64 330 579.79C330 577.83 330 570.98 330 570Z" id="j5tamlsmrv"></path><path d="M523.25 235.81C523.23 235.74 523.19 235.68 523.16 235.62C512.19 209.3 496.25 185.56 476.52 165.56C476.23 165.17 475.92 164.79 475.56 164.44C475.21 164.08 474.83 163.77 474.44 163.48C454.44 143.75 430.7 127.81 404.38 116.84C404.32 116.81 404.26 116.78 404.19 116.75C404.11 116.72 404.04 116.69 403.96 116.66C378.07 105.94 349.72 100 320 100C290.28 100 261.93 105.94 236.04 116.66C235.96 116.69 235.89 116.72 235.81 116.75C235.74 116.77 235.68 116.81 235.62 116.84C209.3 127.81 185.56 143.75 165.56 163.48C165.17 163.77 164.79 164.08 164.44 164.44C164.08 164.79 163.77 165.17 163.48 165.56C143.75 185.56 127.81 209.3 116.84 235.62C116.81 235.68 116.77 235.74 116.75 235.81C116.71 235.89 116.69 235.97 116.66 236.05C105.94 261.93 100 290.28 100 320C100 349.72 105.94 378.07 116.66 403.95C116.69 404.03 116.72 404.11 116.75 404.19C116.76 404.24 116.79 404.27 116.81 404.32C127.78 430.66 143.73 454.43 163.48 474.44C163.77 474.83 164.08 475.21 164.44 475.56C164.79 475.92 165.17 476.23 165.56 476.52C185.56 496.25 209.3 512.19 235.62 523.17C235.68 523.19 235.74 523.23 235.81 523.25C235.89 523.29 235.97 523.31 236.05 523.34C261.93 534.06 290.28 540 320 540C349.72 540 378.07 534.07 403.95 523.34C404.03 523.31 404.11 523.29 404.19 523.25C404.26 523.23 404.32 523.19 404.38 523.16C430.7 512.19 454.44 496.25 474.44 476.52C474.83 476.23 475.21 475.92 475.56 475.56C475.92 475.21 476.23 474.83 476.52 474.44C496.27 454.43 512.21 430.66 523.19 404.32C523.21 404.27 523.23 404.24 523.25 404.19C523.28 404.11 523.31 404.03 523.34 403.95C534.07 378.07 540 349.72 540 320C540 290.28 534.07 261.93 523.34 236.05C523.31 235.97 523.29 235.89 523.25 235.81ZM452.84 364.2C456.47 353.33 458.8 341.87 459.64 330C465.65 330 513.74 330 519.75 330C518.76 349.97 514.82 369.18 508.37 387.2C497.27 382.6 458.4 366.5 452.84 364.2ZM425.77 411.63C433.37 402.86 439.9 393.14 445.17 382.67C450.72 384.97 495.14 403.37 500.7 405.67C492.26 423.4 481.29 439.71 468.25 454.11C459.75 445.61 430.02 415.87 425.77 411.63ZM382.67 445.17C393.14 439.9 402.86 433.37 411.63 425.77C415.87 430.02 449.86 464 454.11 468.25C439.71 481.29 423.4 492.26 405.67 500.7C401.07 489.59 384.97 450.72 382.67 445.17ZM228.37 425.77C237.14 433.37 246.86 439.9 257.33 445.17C255.03 450.72 236.63 495.14 234.33 500.7C216.6 492.26 200.29 481.29 185.89 468.25C194.39 459.75 224.12 430.02 228.37 425.77ZM194.84 382.67C200.1 393.14 206.63 402.86 214.23 411.63C209.98 415.87 176 449.86 171.75 454.11C158.71 439.71 147.74 423.4 139.3 405.67C150.41 401.07 189.28 384.97 194.84 382.67ZM187.16 275.8C183.53 286.67 181.2 298.13 180.36 310C174.35 310 126.26 310 120.25 310C121.24 290.03 125.18 270.82 131.63 252.8C142.73 257.4 181.6 273.5 187.16 275.8ZM214.23 228.37C206.63 237.14 200.1 246.87 194.83 257.33C189.28 255.03 144.86 236.63 139.3 234.33C147.74 216.6 158.71 200.29 171.75 185.89C180.25 194.39 209.98 224.13 214.23 228.37ZM257.33 194.83C246.87 200.1 237.14 206.63 228.37 214.23C224.12 209.98 190.14 176 185.89 171.75C200.29 158.71 216.6 147.74 234.33 139.3C238.93 150.41 255.03 189.28 257.33 194.83ZM411.63 214.23C402.86 206.62 393.14 200.1 382.67 194.83C384.97 189.28 403.37 144.86 405.67 139.3C423.4 147.74 439.71 158.71 454.11 171.75C445.61 180.25 415.88 209.98 411.63 214.23ZM445.16 257.33C439.9 246.87 433.37 237.14 425.77 228.37C430.02 224.13 464 190.14 468.25 185.89C481.29 200.29 492.26 216.6 500.7 234.33C489.59 238.93 450.72 255.03 445.16 257.33ZM200 320C200 253.83 253.83 200 320 200C386.17 200 440 253.83 440 320C440 386.17 386.17 440 320 440C253.83 440 200 386.17 200 320ZM330 180.36C330 174.35 330 126.26 330 120.25C349.97 121.24 369.18 125.18 387.2 131.63C385.67 135.33 378 153.84 364.2 187.16C349.31 183.19 337.91 180.92 330 180.36ZM275.8 187.16C273.5 181.6 255.1 137.18 252.8 131.63C270.82 125.18 290.03 121.24 310 120.25C310 124.26 310 144.29 310 180.36L310 180.36C294.45 182.47 283.05 184.74 275.8 187.16ZM180.36 330C181.2 341.87 183.53 353.33 187.16 364.2C181.6 366.5 137.18 384.9 131.63 387.2C125.18 369.18 121.24 349.97 120.25 330C132.27 330 174.35 330 180.36 330ZM310 459.64C310 465.65 310 513.74 310 519.75C290.03 518.76 270.82 514.82 252.8 508.37C254.33 504.67 262 486.16 275.8 452.84C290.69 456.81 302.09 459.08 310 459.64ZM364.2 452.84C366.5 458.4 384.9 502.82 387.2 508.37C369.18 514.82 349.97 518.76 330 519.75C330 515.74 330 495.71 330 459.64C345.55 457.53 356.95 455.26 364.2 452.84ZM452.84 275.8C458.4 273.5 502.82 255.1 508.37 252.8C514.82 270.82 518.76 290.03 519.75 310C515.74 310 495.71 310 459.64 310L459.64 310C457.53 294.45 455.26 283.05 452.84 275.8Z" id="b62Leotbc6"></path></defs><g><g><use xlink:href="#d26EvCkxQ" opacity="1" fill="#c89173" fill-opacity="1"></use><g><use xlink:href="#d26EvCkxQ" opacity="1" fill-opacity="0" stroke="#000000" stroke-width="1" stroke-opacity="0"></use></g></g><g><use xlink:href="#c2PeeoFej" opacity="1" fill="#ffffff" fill-opacity="1"></use><g><use xlink:href="#c2PeeoFej" opacity="1" fill-opacity="0" stroke="#000000" stroke-width="1" stroke-opacity="0"></use></g></g><g><use xlink:href="#g337abxHbd" opacity="1" fill="#d7a07d" fill-opacity="1"></use><g><use xlink:href="#g337abxHbd" opacity="1" fill-opacity="0" stroke="#000000" stroke-width="1" stroke-opacity="0"></use></g></g><g><use xlink:href="#m3dFC55yP1" opacity="1" fill="#d7a07d" fill-opacity="1"></use><g><use xlink:href="#m3dFC55yP1" opacity="1" fill-opacity="0" stroke="#000000" stroke-width="1" stroke-opacity="0"></use></g></g><g><use xlink:href="#a3BJcehxrD" opacity="1" fill="#d7a07d" fill-opacity="1"></use><g><use xlink:href="#a3BJcehxrD" opacity="1" fill-opacity="0" stroke="#000000" stroke-width="1" stroke-opacity="0"></use></g></g><g><use xlink:href="#dcm1hRMkD" opacity="1" fill="#d7a07d" fill-opacity="1"></use><g><use xlink:href="#dcm1hRMkD" opacity="1" fill-opacity="0" stroke="#000000" stroke-width="1" stroke-opacity="0"></use></g></g><g><use xlink:href="#aHwgPqDyA" opacity="1" fill="#d7a07d" fill-opacity="1"></use><g><use xlink:href="#aHwgPqDyA" opacity="1" fill-opacity="0" stroke="#000000" stroke-width="1" stroke-opacity="0"></use></g></g><g><use xlink:href="#f5XAEFvufP" opacity="1" fill="#d7a07d" fill-opacity="1"></use><g><use xlink:href="#f5XAEFvufP" opacity="1" fill-opacity="0" stroke="#000000" stroke-width="1" stroke-opacity="0"></use></g></g><g><use xlink:href="#b6kHYTioKC" opacity="1" fill="#d7a07d" fill-opacity="1"></use><g><use xlink:href="#b6kHYTioKC" opacity="1" fill-opacity="0" stroke="#000000" stroke-width="1" stroke-opacity="0"></use></g></g><g><use xlink:href="#bQnBhUzd8" opacity="1" fill="#d7a07d" fill-opacity="1"></use><g><use xlink:href="#bQnBhUzd8" opacity="1" fill-opacity="0" stroke="#000000" stroke-width="1" stroke-opacity="0"></use></g></g><g><use xlink:href="#c4GjpYKR9S" opacity="1" fill="#464655" fill-opacity="1"></use><g><use xlink:href="#c4GjpYKR9S" opacity="1" fill-opacity="0" stroke="#000000" stroke-width="1" stroke-opacity="0"></use></g></g><g><use xlink:href="#a1EQj3sYAy" opacity="1" fill="#ff6464" fill-opacity="1"></use><g><use xlink:href="#a1EQj3sYAy" opacity="1" fill-opacity="0" stroke="#000000" stroke-width="1" stroke-opacity="0"></use></g></g><g><use xlink:href="#b5EIGXIHqC" opacity="1" fill="#464655" fill-opacity="1"></use><g><use xlink:href="#b5EIGXIHqC" opacity="1" fill-opacity="0" stroke="#000000" stroke-width="1" stroke-opacity="0"></use></g></g><g><use xlink:href="#aikpQXCZB" opacity="1" fill="#ff6464" fill-opacity="1"></use><g><use xlink:href="#aikpQXCZB" opacity="1" fill-opacity="0" stroke="#000000" stroke-width="1" stroke-opacity="0"></use></g></g><g><use xlink:href="#odmy8Pcs1" opacity="1" fill="#9bdc6e" fill-opacity="1"></use><g><use xlink:href="#odmy8Pcs1" opacity="1" fill-opacity="0" stroke="#000000" stroke-width="1" stroke-opacity="0"></use></g></g><g><use xlink:href="#ad4BRzDe2" opacity="1" fill="#464655" fill-opacity="1"></use><g><use xlink:href="#ad4BRzDe2" opacity="1" fill-opacity="0" stroke="#000000" stroke-width="1" stroke-opacity="0"></use></g></g><g><use xlink:href="#fkKXsoUK" opacity="1" fill="#ff6464" fill-opacity="1"></use><g><use xlink:href="#fkKXsoUK" opacity="1" fill-opacity="0" stroke="#000000" stroke-width="1" stroke-opacity="0"></use></g></g><g><use xlink:href="#k1kmd03tVm" opacity="1" fill="#464655" fill-opacity="1"></use><g><use xlink:href="#k1kmd03tVm" opacity="1" fill-opacity="0" stroke="#000000" stroke-width="1" stroke-opacity="0"></use></g></g><g><use xlink:href="#d4w2KX6sG" opacity="1" fill="#464655" fill-opacity="1"></use><g><use xlink:href="#d4w2KX6sG" opacity="1" fill-opacity="0" stroke="#000000" stroke-width="1" stroke-opacity="0"></use></g></g><g><use xlink:href="#aZ5oRXxfG" opacity="1" fill="#ff6464" fill-opacity="1"></use><g><use xlink:href="#aZ5oRXxfG" opacity="1" fill-opacity="0" stroke="#000000" stroke-width="1" stroke-opacity="0"></use></g></g><g><use xlink:href="#blN4iLu1S" opacity="1" fill="#464655" fill-opacity="1"></use><g><use xlink:href="#blN4iLu1S" opacity="1" fill-opacity="0" stroke="#000000" stroke-width="1" stroke-opacity="0"></use></g></g><g><use xlink:href="#c8w8PUEl8" opacity="1" fill="#ff6464" fill-opacity="1"></use><g><use xlink:href="#c8w8PUEl8" opacity="1" fill-opacity="0" stroke="#000000" stroke-width="1" stroke-opacity="0"></use></g></g><g><use xlink:href="#e14PwQ4zDo" opacity="1" fill="#ff6464" fill-opacity="1"></use><g><use xlink:href="#e14PwQ4zDo" opacity="1" fill-opacity="0" stroke="#000000" stroke-width="1" stroke-opacity="0"></use></g></g><g><use xlink:href="#a13gqw4Vq2" opacity="1" fill="#464655" fill-opacity="1"></use><g><use xlink:href="#a13gqw4Vq2" opacity="1" fill-opacity="0" stroke="#000000" stroke-width="1" stroke-opacity="0"></use></g></g><g><use xlink:href="#a1ThiCG9J" opacity="1" fill="#ff6464" fill-opacity="1"></use><g><use xlink:href="#a1ThiCG9J" opacity="1" fill-opacity="0" stroke="#000000" stroke-width="1" stroke-opacity="0"></use></g></g><g><use xlink:href="#c3aAMS8Loz" opacity="1" fill="#464655" fill-opacity="1"></use><g><use xlink:href="#c3aAMS8Loz" opacity="1" fill-opacity="0" stroke="#000000" stroke-width="1" stroke-opacity="0"></use></g></g><g><use xlink:href="#aVCKX8jT" opacity="1" fill="#2d2b29" fill-opacity="1"></use><g><use xlink:href="#aVCKX8jT" opacity="1" fill-opacity="0" stroke="#000000" stroke-width="1" stroke-opacity="0"></use></g></g><g><use xlink:href="#j5tamlsmrv" opacity="1" fill="#2d2b29" fill-opacity="1"></use><g><use xlink:href="#j5tamlsmrv" opacity="1" fill-opacity="0" stroke="#000000" stroke-width="1" stroke-opacity="0"></use></g></g><g><use xlink:href="#b62Leotbc6" opacity="1" fill="#2d2b29" fill-opacity="1"></use><g><use xlink:href="#b62Leotbc6" opacity="1" fill-opacity="0" stroke="#000000" stroke-width="1" stroke-opacity="0"></use></g></g></g></svg>