<?xml version="1.0" encoding="UTF-8" standalone="no"?>
<!DOCTYPE svg PUBLIC "-//W3C//DTD SVG 1.1//EN" "http://www.w3.org/Graphics/SVG/1.1/DTD/svg11.dtd">
<svg version="1.1" xmlns="http://www.w3.org/2000/svg" xmlns:xlink="http://www.w3.org/1999/xlink" preserveAspectRatio="xMidYMid meet" viewBox="-1 -1.0000000000000568 644.0000000000001 644.0000000000002"><defs><path d="M320 0C143.27 0 0 143.27 0 320C0 496.73 143.27 640 320 640C496.73 640 640 496.73 640 320C640 143.27 496.73 0 320 0Z" id="b207u7d9W"></path><path d="M320 132.41C216.4 132.41 132.41 216.4 132.41 320C132.41 423.6 216.4 507.59 320 507.59C423.6 507.59 507.59 423.6 507.59 320C507.59 216.4 423.6 132.41 320 132.41Z" id="c45Q9R6p5u"></path><path d="M320 110.35C435.79 110.35 529.66 204.21 529.66 320C529.66 435.79 435.79 529.66 320 529.66C204.21 529.66 110.35 435.79 110.35 320C110.35 204.21 204.21 110.35 320 110.35M88.28 320C88.28 447.77 192.23 551.72 320 551.72C447.77 551.72 551.72 447.77 551.72 320C551.72 192.23 447.77 88.28 320 88.28C320 88.28 320 88.28 320 88.28C165.52 157.58 88.28 234.82 88.28 320Z" id="a2r85VO9K6"></path><path d="M264.83 4.84C264.83 9.93 264.83 50.63 264.83 55.72C264.83 64.1 272.24 70.64 280.52 69.33C293.39 67.29 306.57 66.21 320 66.21C333.43 66.21 346.61 67.29 359.48 69.33C367.76 70.64 375.17 64.1 375.17 55.72C375.17 50.63 375.17 9.93 375.17 4.84C357.24 1.72 338.83 0 320 0C301.18 0 282.76 1.72 264.83 4.84Z" id="a4HaSfZMK"></path><path d="M264.83 635.16C282.76 638.28 301.18 640 320 640C338.83 640 357.24 638.28 375.17 635.16C375.17 630.07 375.17 589.37 375.17 584.28C375.17 575.9 367.76 569.36 359.48 570.67C346.61 572.71 333.43 573.79 320 573.79C306.57 573.79 293.39 572.71 280.52 570.67C272.24 569.36 264.83 575.9 264.83 584.28C264.83 594.46 264.83 630.07 264.83 635.16Z" id="a9Vnh1nv8m"></path><path d="M635.16 264.83C630.07 264.83 589.37 264.83 584.28 264.83C575.9 264.83 569.36 272.24 570.67 280.52C572.71 293.39 573.79 306.57 573.79 320C573.79 333.43 572.71 346.61 570.67 359.48C569.36 367.76 575.9 375.17 584.28 375.17C589.37 375.17 630.07 375.17 635.16 375.17C638.28 357.24 640 338.83 640 320C640 301.18 638.28 282.76 635.16 264.83Z" id="a1mrTvTAFm"></path><path d="M4.84 264.83C1.72 282.76 0 301.18 0 320C0 338.83 1.72 357.24 4.84 375.17C9.93 375.17 50.63 375.17 55.72 375.17C64.1 375.17 70.64 367.76 69.33 359.48C67.29 346.61 66.21 333.43 66.21 320C66.21 306.57 67.29 293.39 69.33 280.52C70.64 272.24 64.1 264.83 55.72 264.83C45.54 264.83 9.93 264.83 4.84 264.83Z" id="boYuqPHEM"></path><path d="M503.84 58.13C500.24 61.73 471.46 90.51 467.86 94.11C461.94 100.04 462.55 109.91 469.33 114.83C479.87 122.49 489.96 131.04 499.46 140.54C508.96 150.04 517.51 160.13 525.17 170.67C530.09 177.45 539.96 178.06 545.89 172.14C549.49 168.54 578.27 139.76 581.87 136.16C571.39 121.27 559.59 107.04 546.28 93.73C532.96 80.41 518.73 68.61 503.84 58.13Z" id="afBXmInCg"></path><path d="M58.13 503.84C68.61 518.73 80.41 532.96 93.73 546.27C107.04 559.58 121.27 571.39 136.16 581.87C139.76 578.27 168.54 549.49 172.14 545.89C178.06 539.96 177.45 530.09 170.67 525.17C160.13 517.51 150.04 508.96 140.54 499.46C131.04 489.96 122.48 479.87 114.83 469.33C109.91 462.55 100.04 461.94 94.11 467.86C86.92 475.06 61.73 500.24 58.13 503.84Z" id="a25XSMiUC"></path><path d="M581.87 503.84C578.27 500.24 549.49 471.46 545.89 467.86C539.96 461.94 530.09 462.55 525.17 469.33C517.51 479.87 508.96 489.96 499.46 499.46C489.96 508.96 479.87 517.51 469.33 525.17C462.55 530.09 461.94 539.96 467.86 545.89C471.46 549.49 500.24 578.27 503.84 581.87C518.73 571.39 532.96 559.59 546.28 546.28C559.59 532.96 571.39 518.73 581.87 503.84Z" id="b2fFBeDK3"></path><path d="M136.16 58.13C121.27 68.61 107.04 80.41 93.73 93.73C80.41 107.04 68.61 121.27 58.13 136.16C61.73 139.76 90.51 168.54 94.11 172.14C100.04 178.06 109.91 177.45 114.83 170.67C122.49 160.13 131.04 150.04 140.54 140.54C150.04 131.04 160.13 122.48 170.67 114.83C177.45 109.91 178.06 100.04 172.14 94.11C164.94 86.92 139.76 61.73 136.16 58.13Z" id="a2AIsIDOTx"></path><path d="M65.13 409.02C55.99 409.02 48.58 416.43 48.58 425.57C48.58 434.71 55.99 442.12 65.13 442.12C74.27 442.12 81.68 434.71 81.68 425.57C81.68 416.43 74.27 409.02 65.13 409.02Z" id="j17ZTgWkQT"></path><path d="M574.87 197.88C565.73 197.88 558.32 205.29 558.32 214.43C558.32 223.57 565.73 230.98 574.87 230.98C584.01 230.98 591.42 223.57 591.42 214.43C591.42 205.29 584.01 197.88 574.87 197.88Z" id="c4cArsS4gD"></path><path d="M214.43 48.58C205.29 48.58 197.88 55.99 197.88 65.13C197.88 74.27 205.29 81.68 214.43 81.68C223.57 81.68 230.98 74.27 230.98 65.13C230.98 55.99 223.57 48.58 214.43 48.58Z" id="h1sn7BoNu4"></path><path d="M425.57 558.32C416.43 558.32 409.02 565.73 409.02 574.87C409.02 584.01 416.43 591.42 425.57 591.42C434.71 591.42 442.12 584.01 442.12 574.87C442.12 565.73 434.71 558.32 425.57 558.32Z" id="d4pC2L7NY"></path><path d="M65.13 197.88C55.99 197.88 48.58 205.29 48.58 214.43C48.58 223.57 55.99 230.98 65.13 230.98C74.27 230.98 81.68 223.57 81.68 214.43C81.68 205.29 74.27 197.88 65.13 197.88Z" id="c4p0IFeJc"></path><path d="M574.87 409.02C565.73 409.02 558.32 416.43 558.32 425.57C558.32 434.71 565.73 442.12 574.87 442.12C584.01 442.12 591.42 434.71 591.42 425.57C591.42 416.43 584.01 409.02 574.87 409.02Z" id="a3lVnXdgHx"></path><path d="M425.57 48.58C416.43 48.58 409.02 55.99 409.02 65.13C409.02 74.27 416.43 81.68 425.57 81.68C434.71 81.68 442.12 74.27 442.12 65.13C442.12 55.99 434.71 48.58 425.57 48.58Z" id="a1UtlQleaw"></path><path d="M214.43 558.32C205.29 558.32 197.88 565.73 197.88 574.87C197.88 584.01 205.29 591.42 214.43 591.42C223.57 591.42 230.98 584.01 230.98 574.87C230.98 565.73 223.57 558.32 214.43 558.32Z" id="a8P2pEDxt"></path><path d="M486.01 192.3C497.21 206.84 506.65 222.79 513.76 239.99C515.68 238.88 531.07 229.99 533 228.88C525.67 211.81 516.18 195.92 505.15 181.25C501.32 183.46 487.93 191.2 486.01 192.3Z" id="a4E5vzHfrO"></path><path d="M447.7 153.99C448.81 152.07 457.65 136.76 458.75 134.85C444.08 123.82 428.19 114.33 411.12 107C410.38 108.28 406.68 114.7 400.02 126.24C422.11 137.27 438.01 146.52 447.7 153.99Z" id="c8Mx0KVI9"></path><path d="M292.41 112.37C301.46 111.18 310.63 110.35 320 110.35C329.38 110.35 338.54 111.17 347.59 112.37C347.59 110.14 347.59 92.31 347.59 90.08C338.52 88.99 329.35 88.28 320 88.28C310.65 88.28 301.48 88.99 292.41 90.08C292.41 94.53 292.41 110.14 292.41 112.37Z" id="deB4pvhJx"></path><path d="M527.63 347.59C529.86 347.59 547.69 347.59 549.92 347.59C551.01 338.52 551.72 329.35 551.72 320C551.72 310.65 551.01 301.48 549.92 292.41C547.69 292.41 529.86 292.41 527.63 292.41C528.83 301.46 529.66 310.63 529.66 320C529.66 329.38 528.83 338.54 527.63 347.59Z" id="a3iRiY9nb7"></path><path d="M112.37 292.41C110.14 292.41 92.31 292.41 90.08 292.41C88.99 301.48 88.28 310.65 88.28 320C88.28 329.35 89 338.52 90.08 347.59C92.31 347.59 110.14 347.59 112.37 347.59C111.17 338.54 110.35 329.38 110.35 320C110.35 310.63 111.17 301.46 112.37 292.41Z" id="aaGWY5Gzzm"></path><path d="M239.99 126.24C238.87 124.32 229.99 108.93 228.88 107C211.81 114.34 195.92 123.83 181.25 134.85C181.99 136.13 185.67 142.51 192.3 153.99C212.62 140.23 228.52 130.98 239.99 126.24Z" id="e5SWNtZdUQ"></path><path d="M513.76 400.01C506.65 417.22 497.21 433.16 486.01 447.7C487.93 448.8 503.24 457.64 505.15 458.75C516.18 444.08 525.67 428.19 533 411.12C529.15 408.9 515.69 401.12 513.76 400.01Z" id="acgTDV1cp"></path><path d="M347.59 527.63C338.54 528.83 329.38 529.65 320 529.65C310.63 529.65 301.46 528.83 292.41 527.63C292.41 529.86 292.41 547.69 292.41 549.92C301.48 551.01 310.65 551.72 320 551.72C329.35 551.72 338.52 551.01 347.59 549.92C347.59 545.47 347.59 529.86 347.59 527.63Z" id="a2el1KX1aN"></path><path d="M400.01 513.76C401.12 515.68 410.01 531.07 411.12 533C428.19 525.67 444.08 516.17 458.75 505.15C458.01 503.87 454.33 497.49 447.7 486.01C427.38 499.77 411.48 509.02 400.01 513.76Z" id="e5ekOHLhza"></path><path d="M192.3 486.01C191.19 487.93 182.35 503.24 181.25 505.15C195.92 516.18 211.8 525.67 228.88 533C229.62 531.72 233.32 525.3 239.99 513.76C217.89 502.73 201.99 493.48 192.3 486.01Z" id="d3z2JO1TFi"></path><path d="M126.24 400.02C124.31 401.13 108.92 410.01 107 411.12C114.33 428.2 123.82 444.08 134.85 458.75C136.12 458.01 142.5 454.33 153.99 447.7C140.23 427.38 130.98 411.48 126.24 400.02Z" id="a572OrNkc"></path><path d="M126.24 239.99C133.35 222.78 142.79 206.84 153.99 192.3C152.07 191.19 136.76 182.35 134.85 181.25C123.82 195.92 114.33 211.81 107 228.88C110.85 231.1 124.31 238.87 126.24 239.99Z" id="d29czbAnY9"></path></defs><g><g><use xlink:href="#b207u7d9W" opacity="1" fill="#515262" fill-opacity="1"></use><g><use xlink:href="#b207u7d9W" opacity="1" fill-opacity="0" stroke="#000000" stroke-width="1" stroke-opacity="0"></use></g></g><g><use xlink:href="#c45Q9R6p5u" opacity="1" fill="#eff2fa" fill-opacity="1"></use><g><use xlink:href="#c45Q9R6p5u" opacity="1" fill-opacity="0" stroke="#000000" stroke-width="1" stroke-opacity="0"></use></g></g><g><use xlink:href="#a2r85VO9K6" opacity="1" fill="#464655" fill-opacity="1"></use><g><use xlink:href="#a2r85VO9K6" opacity="1" fill-opacity="0" stroke="#000000" stroke-width="1" stroke-opacity="0"></use></g></g><g><use xlink:href="#a4HaSfZMK" opacity="1" fill="#eff2fa" fill-opacity="1"></use><g><use xlink:href="#a4HaSfZMK" opacity="1" fill-opacity="0" stroke="#000000" stroke-width="1" stroke-opacity="0"></use></g></g><g><use xlink:href="#a9Vnh1nv8m" opacity="1" fill="#eff2fa" fill-opacity="1"></use><g><use xlink:href="#a9Vnh1nv8m" opacity="1" fill-opacity="0" stroke="#000000" stroke-width="1" stroke-opacity="0"></use></g></g><g><use xlink:href="#a1mrTvTAFm" opacity="1" fill="#eff2fa" fill-opacity="1"></use><g><use xlink:href="#a1mrTvTAFm" opacity="1" fill-opacity="0" stroke="#000000" stroke-width="1" stroke-opacity="0"></use></g></g><g><use xlink:href="#boYuqPHEM" opacity="1" fill="#eff2fa" fill-opacity="1"></use><g><use xlink:href="#boYuqPHEM" opacity="1" fill-opacity="0" stroke="#000000" stroke-width="1" stroke-opacity="0"></use></g></g><g><use xlink:href="#afBXmInCg" opacity="1" fill="#eff2fa" fill-opacity="1"></use><g><use xlink:href="#afBXmInCg" opacity="1" fill-opacity="0" stroke="#000000" stroke-width="1" stroke-opacity="0"></use></g></g><g><use xlink:href="#a25XSMiUC" opacity="1" fill="#eff2fa" fill-opacity="1"></use><g><use xlink:href="#a25XSMiUC" opacity="1" fill-opacity="0" stroke="#000000" stroke-width="1" stroke-opacity="0"></use></g></g><g><use xlink:href="#b2fFBeDK3" opacity="1" fill="#eff2fa" fill-opacity="1"></use><g><use xlink:href="#b2fFBeDK3" opacity="1" fill-opacity="0" stroke="#000000" stroke-width="1" stroke-opacity="0"></use></g></g><g><use xlink:href="#a2AIsIDOTx" opacity="1" fill="#eff2fa" fill-opacity="1"></use><g><use xlink:href="#a2AIsIDOTx" opacity="1" fill-opacity="0" stroke="#000000" stroke-width="1" stroke-opacity="0"></use></g></g><g><use xlink:href="#j17ZTgWkQT" opacity="1" fill="#eff2fa" fill-opacity="1"></use><g><use xlink:href="#j17ZTgWkQT" opacity="1" fill-opacity="0" stroke="#000000" stroke-width="1" stroke-opacity="0"></use></g></g><g><use xlink:href="#c4cArsS4gD" opacity="1" fill="#eff2fa" fill-opacity="1"></use><g><use xlink:href="#c4cArsS4gD" opacity="1" fill-opacity="0" stroke="#000000" stroke-width="1" stroke-opacity="0"></use></g></g><g><use xlink:href="#h1sn7BoNu4" opacity="1" fill="#eff2fa" fill-opacity="1"></use><g><use xlink:href="#h1sn7BoNu4" opacity="1" fill-opacity="0" stroke="#000000" stroke-width="1" stroke-opacity="0"></use></g></g><g><use xlink:href="#d4pC2L7NY" opacity="1" fill="#eff2fa" fill-opacity="1"></use><g><use xlink:href="#d4pC2L7NY" opacity="1" fill-opacity="0" stroke="#000000" stroke-width="1" stroke-opacity="0"></use></g></g><g><use xlink:href="#c4p0IFeJc" opacity="1" fill="#eff2fa" fill-opacity="1"></use><g><use xlink:href="#c4p0IFeJc" opacity="1" fill-opacity="0" stroke="#000000" stroke-width="1" stroke-opacity="0"></use></g></g><g><use xlink:href="#a3lVnXdgHx" opacity="1" fill="#eff2fa" fill-opacity="1"></use><g><use xlink:href="#a3lVnXdgHx" opacity="1" fill-opacity="0" stroke="#000000" stroke-width="1" stroke-opacity="0"></use></g></g><g><use xlink:href="#a1UtlQleaw" opacity="1" fill="#eff2fa" fill-opacity="1"></use><g><use xlink:href="#a1UtlQleaw" opacity="1" fill-opacity="0" stroke="#000000" stroke-width="1" stroke-opacity="0"></use></g></g><g><use xlink:href="#a8P2pEDxt" opacity="1" fill="#eff2fa" fill-opacity="1"></use><g><use xlink:href="#a8P2pEDxt" opacity="1" fill-opacity="0" stroke="#000000" stroke-width="1" stroke-opacity="0"></use></g></g><g><use xlink:href="#a4E5vzHfrO" opacity="1" fill="#eff2fa" fill-opacity="1"></use><g><use xlink:href="#a4E5vzHfrO" opacity="1" fill-opacity="0" stroke="#000000" stroke-width="1" stroke-opacity="0"></use></g></g><g><use xlink:href="#c8Mx0KVI9" opacity="1" fill="#eff2fa" fill-opacity="1"></use><g><use xlink:href="#c8Mx0KVI9" opacity="1" fill-opacity="0" stroke="#000000" stroke-width="1" stroke-opacity="0"></use></g></g><g><use xlink:href="#deB4pvhJx" opacity="1" fill="#eff2fa" fill-opacity="1"></use><g><use xlink:href="#deB4pvhJx" opacity="1" fill-opacity="0" stroke="#000000" stroke-width="1" stroke-opacity="0"></use></g></g><g><use xlink:href="#a3iRiY9nb7" opacity="1" fill="#eff2fa" fill-opacity="1"></use><g><use xlink:href="#a3iRiY9nb7" opacity="1" fill-opacity="0" stroke="#000000" stroke-width="1" stroke-opacity="0"></use></g></g><g><use xlink:href="#aaGWY5Gzzm" opacity="1" fill="#eff2fa" fill-opacity="1"></use><g><use xlink:href="#aaGWY5Gzzm" opacity="1" fill-opacity="0" stroke="#000000" stroke-width="1" stroke-opacity="0"></use></g></g><g><use xlink:href="#e5SWNtZdUQ" opacity="1" fill="#eff2fa" fill-opacity="1"></use><g><use xlink:href="#e5SWNtZdUQ" opacity="1" fill-opacity="0" stroke="#000000" stroke-width="1" stroke-opacity="0"></use></g></g><g><use xlink:href="#acgTDV1cp" opacity="1" fill="#eff2fa" fill-opacity="1"></use><g><use xlink:href="#acgTDV1cp" opacity="1" fill-opacity="0" stroke="#000000" stroke-width="1" stroke-opacity="0"></use></g></g><g><use xlink:href="#a2el1KX1aN" opacity="1" fill="#eff2fa" fill-opacity="1"></use><g><use xlink:href="#a2el1KX1aN" opacity="1" fill-opacity="0" stroke="#000000" stroke-width="1" stroke-opacity="0"></use></g></g><g><use xlink:href="#e5ekOHLhza" opacity="1" fill="#eff2fa" fill-opacity="1"></use><g><use xlink:href="#e5ekOHLhza" opacity="1" fill-opacity="0" stroke="#000000" stroke-width="1" stroke-opacity="0"></use></g></g><g><use xlink:href="#d3z2JO1TFi" opacity="1" fill="#eff2fa" fill-opacity="1"></use><g><use xlink:href="#d3z2JO1TFi" opacity="1" fill-opacity="0" stroke="#000000" stroke-width="1" stroke-opacity="0"></use></g></g><g><use xlink:href="#a572OrNkc" opacity="1" fill="#eff2fa" fill-opacity="1"></use><g><use xlink:href="#a572OrNkc" opacity="1" fill-opacity="0" stroke="#000000" stroke-width="1" stroke-opacity="0"></use></g></g><g><use xlink:href="#d29czbAnY9" opacity="1" fill="#eff2fa" fill-opacity="1"></use><g><use xlink:href="#d29czbAnY9" opacity="1" fill-opacity="0" stroke="#000000" stroke-width="1" stroke-opacity="0"></use></g></g></g></svg>