<?xml version="1.0" encoding="UTF-8" standalone="no"?>
<!DOCTYPE svg PUBLIC "-//W3C//DTD SVG 1.1//EN" "http://www.w3.org/Graphics/SVG/1.1/DTD/svg11.dtd">
<svg version="1.1" xmlns="http://www.w3.org/2000/svg" xmlns:xlink="http://www.w3.org/1999/xlink" preserveAspectRatio="xMidYMid meet" viewBox="-1 -1 644 644" ><defs><path d="M320 30C159.84 30 30 159.84 30 320C30 480.16 159.84 610 320 610C480.16 610 610 480.16 610 320C610 159.84 480.16 30 320 30Z" id="b1tMghstkf"></path><path d="M320 128.75C214.38 128.75 128.75 214.38 128.75 320C128.75 425.62 214.38 511.25 320 511.25C425.62 511.25 511.25 425.62 511.25 320C511.25 214.38 425.62 128.75 320 128.75Z" id="b38UoF3vWw"></path><path d="M51.5 164.98C25.11 210.58 10 263.52 10 320C18 320 82 320 90 320C90 278.1 101.21 238.82 120.79 204.98C106.93 196.98 58.42 168.98 51.5 164.98Z" id="a5zyleckH"></path><path d="M164.98 51.49C117.94 78.71 78.71 117.94 51.5 164.98C58.42 168.98 113.86 200.98 120.79 204.98C140.98 170.08 170.08 140.98 204.98 120.79C196.98 106.93 168.98 58.42 164.98 51.49Z" id="b8Jf82xRzf"></path><path d="M320 10C263.52 10 210.58 25.11 164.98 51.5C168.98 58.42 200.98 113.86 204.98 120.79C238.82 101.21 278.1 90 320 90C320 74 320 18 320 10Z" id="a3Q7nnHvO0"></path><path d="M630 320C630 263.52 614.89 210.58 588.51 164.98C581.58 168.98 526.14 200.98 519.21 204.98C538.79 238.82 550 278.1 550 320C566 320 622 320 630 320Z" id="ajYkqQc7"></path><path d="M588.51 164.98C561.29 117.94 522.06 78.71 475.02 51.5C471.02 58.42 439.02 113.86 435.02 120.79C469.92 140.98 499.02 170.08 519.21 204.98C533.07 196.98 581.58 168.98 588.51 164.98Z" id="a27Aw2kn24"></path><path d="M475.02 51.5C429.42 25.11 376.48 10 320 10C320 18 320 82 320 90C361.9 90 401.18 101.21 435.02 120.79C443.02 106.93 471.02 58.42 475.02 51.5Z" id="acxNncsLj"></path><path d="M10 320C10 376.48 25.11 429.42 51.5 475.02C58.42 471.02 113.86 439.02 120.79 435.02C101.21 401.18 90 361.9 90 320C74 320 18 320 10 320Z" id="a3TWWPXeL4"></path><path d="M475.02 588.51C522.06 561.29 561.29 522.06 588.51 475.02C581.58 471.02 526.14 439.02 519.21 435.02C499.02 469.92 469.92 499.02 435.02 519.21C443.02 533.07 471.02 581.58 475.02 588.51Z" id="d19Y3XzFgt"></path><path d="M51.5 475.02C78.71 522.06 117.94 561.29 164.98 588.51C168.98 581.58 200.98 526.14 204.98 519.21C170.08 499.02 140.98 469.92 120.79 435.02C106.93 443.02 58.42 471.02 51.5 475.02Z" id="a1faJ3DnT"></path><path d="M519.21 435.02C526.14 439.02 581.58 471.02 588.51 475.02C614.89 429.42 630 376.48 630 320C624.67 320 598 320 550 320C542.53 374.12 532.26 412.46 519.21 435.02Z" id="a8FRgOGDy"></path><path d="M320 630C376.48 630 429.42 614.89 475.02 588.51C471.02 581.58 439.02 526.14 435.02 519.21C401.18 538.79 361.9 550 320 550C320 566 320 622 320 630Z" id="a1OromFm5t"></path><path d="M164.98 588.51C210.58 614.89 263.52 630 320 630C320 622 320 558 320 550C278.1 550 238.82 538.79 204.98 519.21C196.98 533.07 168.98 581.58 164.98 588.51Z" id="e1gZNna5Co"></path><path d="M471.3 203.62C471.02 203.25 469.59 201.39 467.02 198.05L495.82 181.43C497.78 184.04 498.87 185.49 499.09 185.78C510.16 200.51 519.22 216.01 526.02 231.85C526.16 232.19 526.88 233.86 528.18 236.87L499.28 253.56L496.6 247.08C486.73 227.18 478.3 212.7 471.3 203.62Z" id="aTvg9xvN"></path><path d="M476.17 199.87C486.71 213.54 495.59 228.54 502.28 244.73C504.09 243.68 518.57 235.32 520.38 234.28C513.48 218.22 504.55 203.28 494.18 189.47C490.58 191.55 477.97 198.83 476.17 199.87Z" id="h1pz1AKApg"></path><path d="M392.92 143.4C392.49 143.22 390.33 142.33 386.44 140.72L403.13 111.82C406.14 113.11 407.81 113.83 408.15 113.98C423.99 120.78 439.49 129.84 454.22 140.91C454.51 141.13 455.96 142.22 458.57 144.18L441.95 172.98L436.38 168.7C417.55 156.03 403.07 147.6 392.92 143.4Z" id="a4uuLaWQL"></path><path d="M440.13 163.83C441.17 162.03 449.49 147.62 450.53 145.82C436.72 135.45 421.78 126.52 405.72 119.63C405.02 120.83 401.54 126.86 395.27 137.72C416.06 148.1 431.02 156.8 440.13 163.83Z" id="a3KC0FNuUx"></path><path d="M320 128.92C312.41 128.92 304.42 129.51 294.85 130.77C294.39 130.83 292.07 131.13 287.9 131.68L287.9 98.25C291.15 97.86 292.96 97.64 293.32 97.6C303.11 96.43 311.84 95.86 320 95.86C328.16 95.86 336.89 96.43 346.68 97.6C347.04 97.64 348.85 97.86 352.1 98.25L352.1 131.68L345.15 130.77C333.44 129.53 325.06 128.92 320 128.92Z" id="b2HS3BJKNu"></path><path d="M294.05 124.67C302.56 123.55 311.18 122.77 320 122.77C328.82 122.77 337.44 123.55 345.95 124.67C345.95 122.57 345.95 105.8 345.95 103.7C337.43 102.69 328.8 102.01 320 102.01C311.2 102.01 302.58 102.68 294.05 103.7C294.05 107.9 294.05 122.57 294.05 124.67Z" id="b6sxXDoJrd"></path><path d="M509.23 345.15C510.5 335.58 511.08 327.58 511.08 320C511.08 312.42 510.49 304.42 509.23 294.85C509.17 294.39 508.87 292.07 508.32 287.9L541.76 287.9C542.14 291.15 542.36 292.96 542.4 293.32C543.57 303.11 544.14 311.84 544.14 320C544.14 328.16 543.57 336.89 542.4 346.68C542.36 347.04 542.14 348.85 541.75 352.1L508.32 352.1C508.87 347.93 509.17 345.61 509.23 345.15Z" id="a12w92cfcS"></path><path d="M515.33 345.95C517.43 345.95 534.2 345.95 536.3 345.95C537.32 337.43 537.99 328.8 537.99 320C537.99 311.2 537.32 302.58 536.3 294.05C534.2 294.05 517.43 294.05 515.33 294.05C516.45 302.56 517.23 311.18 517.23 320C517.23 328.82 516.45 337.44 515.33 345.95Z" id="d2a4gkYNtx"></path><path d="M97.6 346.68C96.43 336.89 95.86 328.16 95.86 320C95.86 311.84 96.43 303.11 97.6 293.32C97.64 292.96 97.86 291.15 98.24 287.9L131.68 287.9C131.13 292.07 130.83 294.39 130.76 294.85C129.5 304.42 128.92 312.42 128.92 320C128.92 327.58 129.5 335.58 130.76 345.15C130.83 345.61 131.13 347.93 131.68 352.1L98.25 352.1L98.25 352.1C97.86 348.85 97.64 347.04 97.6 346.68Z" id="aj5vzG1MZ"></path><path d="M124.67 294.05C122.57 294.05 105.8 294.05 103.7 294.05C102.69 302.58 102.01 311.21 102.01 320C102.01 328.8 102.69 337.42 103.7 345.95C105.8 345.95 122.58 345.95 124.67 345.95C123.55 337.44 122.77 328.82 122.77 320C122.77 311.18 123.55 302.56 124.67 294.05Z" id="a1pKHLd7Pz"></path><path d="M185.78 140.91C200.51 129.84 216.01 120.78 231.85 113.98C232.19 113.83 233.86 113.11 236.87 111.82L253.56 140.72C249.67 142.33 247.51 143.22 247.08 143.4C231.86 149.69 217.24 158.2 203.62 168.7C203.25 168.98 201.39 170.41 198.06 172.98L181.43 144.18C184.04 142.22 185.49 141.13 185.78 140.91Z" id="bOZnU6Xl"></path><path d="M244.73 137.72C243.68 135.91 235.32 121.43 234.28 119.63C218.22 126.52 203.28 135.45 189.47 145.82C190.17 147.02 193.63 153.02 199.87 163.83C218.99 150.88 233.94 142.18 244.73 137.72Z" id="i1U8zXwC2f"></path><path d="M471.3 436.38C481.8 422.76 490.31 408.14 496.6 392.92C496.78 392.49 497.67 390.33 499.28 386.44L528.18 403.13C526.89 406.14 526.17 407.81 526.02 408.15C519.22 423.99 510.16 439.49 499.09 454.22C498.88 454.51 497.79 455.96 495.82 458.57L467.02 441.95C469.59 438.61 471.02 436.75 471.3 436.38Z" id="dnc7YYUfn"></path><path d="M502.28 395.27C495.59 411.46 486.71 426.46 476.17 440.13C477.97 441.17 492.38 449.49 494.18 450.53C504.55 436.72 513.48 421.78 520.38 405.72C516.76 403.63 504.09 396.32 502.28 395.27Z" id="d67fZnrIVI"></path><path d="M293.32 542.4C292.96 542.36 291.15 542.14 287.9 541.76L287.9 508.32C292.07 508.87 294.39 509.17 294.85 509.23C304.42 510.5 312.41 511.08 320 511.08C327.59 511.08 335.58 510.49 345.15 509.23C345.61 509.17 347.93 508.87 352.1 508.32L352.1 541.76C348.85 542.14 347.04 542.36 346.68 542.4C336.89 543.57 328.16 544.14 320 544.14C311.84 544.14 303.11 543.57 293.32 542.4Z" id="elcXRzFjP"></path><path d="M345.95 515.33C337.44 516.45 328.82 517.23 320 517.23C311.18 517.23 302.56 516.45 294.05 515.33C294.05 517.43 294.05 534.2 294.05 536.3C302.58 537.32 311.21 537.99 320 537.99C328.8 537.99 337.42 537.32 345.95 536.3C345.95 532.1 345.95 517.43 345.95 515.33Z" id="c284op1G0T"></path><path d="M392.92 496.6C408.14 490.31 422.76 481.8 436.38 471.3C436.75 471.02 438.61 469.59 441.95 467.02L458.57 495.82C455.96 497.78 454.51 498.87 454.22 499.09C439.49 510.16 423.99 519.22 408.15 526.02C407.81 526.17 406.14 526.89 403.13 528.18L386.44 499.28C390.33 497.67 392.49 496.78 392.92 496.6Z" id="a4A7uN3xah"></path><path d="M395.27 502.28C396.32 504.09 404.68 518.56 405.72 520.37C421.78 513.48 436.72 504.55 450.53 494.18C449.83 492.98 446.37 486.97 440.13 476.17C421.01 489.12 406.06 497.82 395.27 502.28Z" id="bJyZhnpz1"></path><path d="M185.78 499.09C185.49 498.87 184.04 497.78 181.43 495.82L198.05 467.02C201.39 469.59 203.25 471.02 203.62 471.3C217.24 481.79 231.86 490.31 247.08 496.6C247.51 496.78 249.67 497.67 253.56 499.28L236.87 528.18L231.85 526.02C210.96 515.44 195.6 506.47 185.78 499.09Z" id="bhspXv5yo"></path><path d="M199.87 476.17C198.83 477.97 190.51 492.38 189.47 494.18C203.28 504.55 218.22 513.48 234.28 520.38C234.98 519.17 238.46 513.14 244.73 502.28C223.94 491.9 208.99 483.2 199.87 476.17Z" id="h6kI02KtQ"></path><path d="M113.98 408.15C113.83 407.81 113.12 406.14 111.82 403.13L140.72 386.44C142.33 390.33 143.22 392.49 143.4 392.92C149.69 408.14 158.2 422.76 168.7 436.38C168.98 436.75 170.41 438.61 172.98 441.94L144.18 458.57L140.91 454.22C127.49 434.07 118.51 418.71 113.98 408.15Z" id="o3wXSMTKav"></path><path d="M137.72 395.27C135.91 396.32 121.43 404.68 119.63 405.72C126.52 421.78 135.45 436.72 145.82 450.53C147.02 449.83 153.02 446.37 163.83 440.13C150.88 421.01 142.18 406.06 137.72 395.27Z" id="a3SoCl4DWR"></path><path d="M113.98 231.85C120.78 216.01 129.84 200.51 140.91 185.78C141.13 185.49 142.22 184.04 144.18 181.43L172.98 198.05C170.41 201.39 168.98 203.25 168.7 203.62C158.2 217.24 149.69 231.86 143.4 247.08C143.22 247.51 142.33 249.67 140.72 253.56L111.82 236.87C113.12 233.86 113.83 232.19 113.98 231.85Z" id="b1VtX3TgVK"></path><path d="M137.72 244.73C144.41 228.55 153.29 213.54 163.83 199.87C162.03 198.83 147.62 190.51 145.82 189.47C135.45 203.28 126.52 218.22 119.63 234.28C123.24 236.37 135.91 243.68 137.72 244.73Z" id="avpP9IXFS"></path><path d="M320 0C234.53 0 154.17 33.28 93.73 93.73C33.28 154.17 0 234.53 0 320C0 405.48 33.28 485.84 93.73 546.28C154.17 606.72 234.53 640 320 640C405.48 640 485.83 606.72 546.28 546.28C606.72 485.84 640 405.48 640 320C640 234.53 606.72 154.17 546.28 93.73C485.83 33.28 405.48 0 320 0ZM532.63 431.21C548.64 400.73 558.28 366.4 559.78 330C565.78 330 613.81 330 619.82 330C618.26 377.31 605.7 421.88 584.61 461.23C574.21 455.22 537.82 434.21 532.63 431.21ZM310 619.82C262.69 618.26 218.12 605.7 178.77 584.61C181.78 579.41 205.79 537.82 208.79 532.63C239.27 548.64 273.6 558.28 310 559.78C310 571.78 310 613.81 310 619.82ZM431.21 532.63C434.21 537.82 458.22 579.41 461.23 584.61C421.88 605.7 377.31 618.26 330 619.82C330 615.81 330 595.8 330 559.78C377.15 552.35 410.89 543.3 431.21 532.63ZM100 320C100 198.69 198.69 100 320 100C441.31 100 540 198.69 540 320C540 441.31 441.31 540 320 540C198.69 540 100 441.31 100 320ZM80.22 330C81.72 366.4 91.37 400.73 107.38 431.21C102.18 434.21 60.59 458.23 55.39 461.23C34.3 421.88 21.74 377.31 20.18 330C32.19 330 74.22 330 80.22 330ZM107.38 208.79C91.37 239.27 81.72 273.6 80.22 310C74.22 310 26.19 310 20.18 310C21.74 262.69 34.3 218.12 55.39 178.77C65.79 184.78 102.18 205.79 107.38 208.79ZM330 20.18C377.31 21.74 421.88 34.3 461.23 55.39C458.22 60.59 434.21 102.18 431.21 107.38C400.73 91.37 366.4 81.72 330 80.22C330 68.22 330 26.19 330 20.18ZM208.79 107.38C205.79 102.18 181.78 60.59 178.77 55.39C218.12 34.3 262.69 21.74 310 20.18C310 24.19 310 44.2 310 80.22L310 80.22C262.85 87.65 229.11 96.7 208.79 107.38ZM532.63 208.79C537.82 205.79 579.41 181.77 584.61 178.77C605.7 218.12 618.26 262.69 619.82 310C615.81 310 595.8 310 559.78 310L559.78 310C552.35 262.85 543.3 229.11 532.63 208.79ZM522.6 191.48C503.64 161.7 478.3 136.36 448.52 117.4C451.52 112.2 475.53 70.62 478.53 65.42C517.38 89.7 550.3 122.62 574.58 161.47C564.18 167.47 527.8 188.48 522.6 191.48ZM191.48 117.4C161.7 136.36 136.36 161.7 117.4 191.48C112.2 188.48 70.62 164.47 65.42 161.47C89.7 122.62 122.62 89.7 161.47 65.42C167.47 75.82 188.48 112.2 191.48 117.4ZM117.4 448.52C136.36 478.3 161.7 503.64 191.48 522.6C188.48 527.8 164.47 569.38 161.47 574.58C122.62 550.3 89.7 517.38 65.42 478.53C75.82 472.53 112.2 451.52 117.4 448.52ZM448.52 522.6C478.3 503.64 503.64 478.3 522.6 448.52C527.8 451.52 569.38 475.53 574.58 478.53C550.3 517.38 517.38 550.3 478.53 574.58C472.53 564.18 451.52 527.8 448.52 522.6Z" id="a5Bi2IhfjG"></path><path d="M460 201.54C462.41 201.54 464.84 200.67 466.76 198.91C470.82 195.17 471.09 188.85 467.36 184.78C463.5 180.58 459.42 176.49 455.22 172.64C451.15 168.9 444.82 169.17 441.09 173.24C437.35 177.31 437.62 183.63 441.69 187.37C445.47 190.84 449.15 194.52 452.63 198.3C454.6 200.45 457.29 201.54 460 201.54Z" id="l36bAmOJJD"></path><path d="M320 140C349.75 140 379.22 147.41 405.23 161.42C410.1 164.04 416.16 162.22 418.78 157.36C421.4 152.49 419.58 146.43 414.72 143.81C385.8 128.23 353.05 120 320 120C209.72 120 120 209.72 120 320C120 365.93 135.96 410.79 164.93 446.32C166.91 448.74 169.79 450 172.69 450C174.91 450 177.15 449.26 179 447.75C183.28 444.26 183.92 437.96 180.43 433.68C154.36 401.71 140 361.34 140 320C140 220.75 220.75 140 320 140Z" id="c3sTFVGYra"></path><path d="M482.62 221.19C477.76 223.81 475.94 229.87 478.56 234.73C492.59 260.75 500 290.24 500 320C500 419.25 419.25 500 320 500C278.66 500 238.29 485.64 206.32 459.56C202.04 456.08 195.74 456.71 192.25 460.99C188.76 465.27 189.4 471.57 193.68 475.06C229.21 504.04 274.07 520 320 520C430.28 520 520 430.28 520 320C520 286.94 511.76 254.17 496.17 225.25C493.55 220.38 487.49 218.57 482.62 221.19Z" id="e1V5cz1hqA"></path></defs><g><g><use xlink:href="#b1tMghstkf" opacity="1" fill="#ff6464" fill-opacity="1"></use><g><use xlink:href="#b1tMghstkf" opacity="1" fill-opacity="0" stroke="#000000" stroke-width="1" stroke-opacity="0"></use></g></g><g><use xlink:href="#b38UoF3vWw" opacity="1" fill="#eff2fa" fill-opacity="1"></use><g><use xlink:href="#b38UoF3vWw" opacity="1" fill-opacity="0" stroke="#000000" stroke-width="1" stroke-opacity="0"></use></g></g><g><use xlink:href="#a5zyleckH" opacity="1" fill="#ff6464" fill-opacity="1"></use><g><use xlink:href="#a5zyleckH" opacity="1" fill-opacity="0" stroke="#000000" stroke-width="1" stroke-opacity="0"></use></g></g><g><use xlink:href="#b8Jf82xRzf" opacity="1" fill="#eff2fa" fill-opacity="1"></use><g><use xlink:href="#b8Jf82xRzf" opacity="1" fill-opacity="0" stroke="#000000" stroke-width="1" stroke-opacity="0"></use></g></g><g><use xlink:href="#a3Q7nnHvO0" opacity="1" fill="#ff6464" fill-opacity="1"></use><g><use xlink:href="#a3Q7nnHvO0" opacity="1" fill-opacity="0" stroke="#000000" stroke-width="1" stroke-opacity="0"></use></g></g><g><use xlink:href="#ajYkqQc7" opacity="1" fill="#eff2fa" fill-opacity="1"></use><g><use xlink:href="#ajYkqQc7" opacity="1" fill-opacity="0" stroke="#000000" stroke-width="1" stroke-opacity="0"></use></g></g><g><use xlink:href="#a27Aw2kn24" opacity="1" fill="#ff6464" fill-opacity="1"></use><g><use xlink:href="#a27Aw2kn24" opacity="1" fill-opacity="0" stroke="#000000" stroke-width="1" stroke-opacity="0"></use></g></g><g><use xlink:href="#acxNncsLj" opacity="1" fill="#eff2fa" fill-opacity="1"></use><g><use xlink:href="#acxNncsLj" opacity="1" fill-opacity="0" stroke="#000000" stroke-width="1" stroke-opacity="0"></use></g></g><g><use xlink:href="#a3TWWPXeL4" opacity="1" fill="#eff2fa" fill-opacity="1"></use><g><use xlink:href="#a3TWWPXeL4" opacity="1" fill-opacity="0" stroke="#000000" stroke-width="1" stroke-opacity="0"></use></g></g><g><use xlink:href="#d19Y3XzFgt" opacity="1" fill="#eff2fa" fill-opacity="1"></use><g><use xlink:href="#d19Y3XzFgt" opacity="1" fill-opacity="0" stroke="#000000" stroke-width="1" stroke-opacity="0"></use></g></g><g><use xlink:href="#a1faJ3DnT" opacity="1" fill="#ff6464" fill-opacity="1"></use><g><use xlink:href="#a1faJ3DnT" opacity="1" fill-opacity="0" stroke="#000000" stroke-width="1" stroke-opacity="0"></use></g></g><g><use xlink:href="#a8FRgOGDy" opacity="1" fill="#ff6464" fill-opacity="1"></use><g><use xlink:href="#a8FRgOGDy" opacity="1" fill-opacity="0" stroke="#000000" stroke-width="1" stroke-opacity="0"></use></g></g><g><use xlink:href="#a1OromFm5t" opacity="1" fill="#ff6464" fill-opacity="1"></use><g><use xlink:href="#a1OromFm5t" opacity="1" fill-opacity="0" stroke="#000000" stroke-width="1" stroke-opacity="0"></use></g></g><g><use xlink:href="#e1gZNna5Co" opacity="1" fill="#eff2fa" fill-opacity="1"></use><g><use xlink:href="#e1gZNna5Co" opacity="1" fill-opacity="0" stroke="#000000" stroke-width="1" stroke-opacity="0"></use></g></g><g><use xlink:href="#aTvg9xvN" opacity="1" fill="#eff2fa" fill-opacity="1"></use><g><use xlink:href="#aTvg9xvN" opacity="1" fill-opacity="0" stroke="#000000" stroke-width="1" stroke-opacity="0"></use></g></g><g><use xlink:href="#h1pz1AKApg" opacity="1" fill="#eff2fa" fill-opacity="1"></use><g><use xlink:href="#h1pz1AKApg" opacity="1" fill-opacity="0" stroke="#000000" stroke-width="1" stroke-opacity="0"></use></g></g><g><use xlink:href="#a4uuLaWQL" opacity="1" fill="#eff2fa" fill-opacity="1"></use><g><use xlink:href="#a4uuLaWQL" opacity="1" fill-opacity="0" stroke="#000000" stroke-width="1" stroke-opacity="0"></use></g></g><g><use xlink:href="#a3KC0FNuUx" opacity="1" fill="#eff2fa" fill-opacity="1"></use><g><use xlink:href="#a3KC0FNuUx" opacity="1" fill-opacity="0" stroke="#000000" stroke-width="1" stroke-opacity="0"></use></g></g><g><use xlink:href="#b2HS3BJKNu" opacity="1" fill="#eff2fa" fill-opacity="1"></use><g><use xlink:href="#b2HS3BJKNu" opacity="1" fill-opacity="0" stroke="#000000" stroke-width="1" stroke-opacity="0"></use></g></g><g><use xlink:href="#b6sxXDoJrd" opacity="1" fill="#eff2fa" fill-opacity="1"></use><g><use xlink:href="#b6sxXDoJrd" opacity="1" fill-opacity="0" stroke="#000000" stroke-width="1" stroke-opacity="0"></use></g></g><g><use xlink:href="#a12w92cfcS" opacity="1" fill="#eff2fa" fill-opacity="1"></use><g><use xlink:href="#a12w92cfcS" opacity="1" fill-opacity="0" stroke="#000000" stroke-width="1" stroke-opacity="0"></use></g></g><g><use xlink:href="#d2a4gkYNtx" opacity="1" fill="#eff2fa" fill-opacity="1"></use><g><use xlink:href="#d2a4gkYNtx" opacity="1" fill-opacity="0" stroke="#000000" stroke-width="1" stroke-opacity="0"></use></g></g><g><use xlink:href="#aj5vzG1MZ" opacity="1" fill="#eff2fa" fill-opacity="1"></use><g><use xlink:href="#aj5vzG1MZ" opacity="1" fill-opacity="0" stroke="#000000" stroke-width="1" stroke-opacity="0"></use></g></g><g><use xlink:href="#a1pKHLd7Pz" opacity="1" fill="#eff2fa" fill-opacity="1"></use><g><use xlink:href="#a1pKHLd7Pz" opacity="1" fill-opacity="0" stroke="#000000" stroke-width="1" stroke-opacity="0"></use></g></g><g><use xlink:href="#bOZnU6Xl" opacity="1" fill="#eff2fa" fill-opacity="1"></use><g><use xlink:href="#bOZnU6Xl" opacity="1" fill-opacity="0" stroke="#000000" stroke-width="1" stroke-opacity="0"></use></g></g><g><use xlink:href="#i1U8zXwC2f" opacity="1" fill="#eff2fa" fill-opacity="1"></use><g><use xlink:href="#i1U8zXwC2f" opacity="1" fill-opacity="0" stroke="#000000" stroke-width="1" stroke-opacity="0"></use></g></g><g><use xlink:href="#dnc7YYUfn" opacity="1" fill="#eff2fa" fill-opacity="1"></use><g><use xlink:href="#dnc7YYUfn" opacity="1" fill-opacity="0" stroke="#000000" stroke-width="1" stroke-opacity="0"></use></g></g><g><use xlink:href="#d67fZnrIVI" opacity="1" fill="#eff2fa" fill-opacity="1"></use><g><use xlink:href="#d67fZnrIVI" opacity="1" fill-opacity="0" stroke="#000000" stroke-width="1" stroke-opacity="0"></use></g></g><g><use xlink:href="#elcXRzFjP" opacity="1" fill="#eff2fa" fill-opacity="1"></use><g><use xlink:href="#elcXRzFjP" opacity="1" fill-opacity="0" stroke="#000000" stroke-width="1" stroke-opacity="0"></use></g></g><g><use xlink:href="#c284op1G0T" opacity="1" fill="#eff2fa" fill-opacity="1"></use><g><use xlink:href="#c284op1G0T" opacity="1" fill-opacity="0" stroke="#000000" stroke-width="1" stroke-opacity="0"></use></g></g><g><use xlink:href="#a4A7uN3xah" opacity="1" fill="#eff2fa" fill-opacity="1"></use><g><use xlink:href="#a4A7uN3xah" opacity="1" fill-opacity="0" stroke="#000000" stroke-width="1" stroke-opacity="0"></use></g></g><g><use xlink:href="#bJyZhnpz1" opacity="1" fill="#eff2fa" fill-opacity="1"></use><g><use xlink:href="#bJyZhnpz1" opacity="1" fill-opacity="0" stroke="#000000" stroke-width="1" stroke-opacity="0"></use></g></g><g><use xlink:href="#bhspXv5yo" opacity="1" fill="#eff2fa" fill-opacity="1"></use><g><use xlink:href="#bhspXv5yo" opacity="1" fill-opacity="0" stroke="#000000" stroke-width="1" stroke-opacity="0"></use></g></g><g><use xlink:href="#h6kI02KtQ" opacity="1" fill="#eff2fa" fill-opacity="1"></use><g><use xlink:href="#h6kI02KtQ" opacity="1" fill-opacity="0" stroke="#000000" stroke-width="1" stroke-opacity="0"></use></g></g><g><use xlink:href="#o3wXSMTKav" opacity="1" fill="#eff2fa" fill-opacity="1"></use><g><use xlink:href="#o3wXSMTKav" opacity="1" fill-opacity="0" stroke="#000000" stroke-width="1" stroke-opacity="0"></use></g></g><g><use xlink:href="#a3SoCl4DWR" opacity="1" fill="#eff2fa" fill-opacity="1"></use><g><use xlink:href="#a3SoCl4DWR" opacity="1" fill-opacity="0" stroke="#000000" stroke-width="1" stroke-opacity="0"></use></g></g><g><use xlink:href="#b1VtX3TgVK" opacity="1" fill="#eff2fa" fill-opacity="1"></use><g><use xlink:href="#b1VtX3TgVK" opacity="1" fill-opacity="0" stroke="#000000" stroke-width="1" stroke-opacity="0"></use></g></g><g><use xlink:href="#avpP9IXFS" opacity="1" fill="#eff2fa" fill-opacity="1"></use><g><use xlink:href="#avpP9IXFS" opacity="1" fill-opacity="0" stroke="#000000" stroke-width="1" stroke-opacity="0"></use></g></g><g><use xlink:href="#a5Bi2IhfjG" opacity="1" fill="#2d2b29" fill-opacity="1"></use><g><use xlink:href="#a5Bi2IhfjG" opacity="1" fill-opacity="0" stroke="#000000" stroke-width="1" stroke-opacity="0"></use></g></g><g><use xlink:href="#l36bAmOJJD" opacity="1" fill="#2d2b29" fill-opacity="1"></use><g><use xlink:href="#l36bAmOJJD" opacity="1" fill-opacity="0" stroke="#000000" stroke-width="1" stroke-opacity="0"></use></g></g><g><use xlink:href="#c3sTFVGYra" opacity="1" fill="#2d2b29" fill-opacity="1"></use><g><use xlink:href="#c3sTFVGYra" opacity="1" fill-opacity="0" stroke="#000000" stroke-width="1" stroke-opacity="0"></use></g></g><g><use xlink:href="#e1V5cz1hqA" opacity="1" fill="#2d2b29" fill-opacity="1"></use><g><use xlink:href="#e1V5cz1hqA" opacity="1" fill-opacity="0" stroke="#000000" stroke-width="1" stroke-opacity="0"></use></g></g></g></svg>