<?xml version="1.0" encoding="UTF-8" standalone="no"?>
<!DOCTYPE svg PUBLIC "-//W3C//DTD SVG 1.1//EN" "http://www.w3.org/Graphics/SVG/1.1/DTD/svg11.dtd">
<svg version="1.1" xmlns="http://www.w3.org/2000/svg" xmlns:xlink="http://www.w3.org/1999/xlink" preserveAspectRatio="xMidYMid meet" viewBox="-1.000000000000007 -1 644 644"><defs><path d="M320 30C159.84 30 30 159.84 30 320C30 480.16 159.84 610 320 610C480.16 610 610 480.16 610 320C610 159.84 480.16 30 320 30Z" id="c2qJ9qw25"></path><path d="M320 128.75C214.38 128.75 128.75 214.38 128.75 320C128.75 425.62 214.38 511.25 320 511.25C425.62 511.25 511.25 425.62 511.25 320C511.25 214.38 425.62 128.75 320 128.75Z" id="c3n5bn8QBL"></path><path d="M51.5 164.98C25.11 210.58 10 263.52 10 320C18 320 82 320 90 320C90 278.1 101.21 238.82 120.79 204.98C106.93 196.98 58.42 168.98 51.5 164.98Z" id="bf4bhxANi"></path><path d="M164.98 51.49C117.94 78.71 78.71 117.94 51.5 164.98C58.42 168.98 113.86 200.98 120.79 204.98C140.98 170.08 170.08 140.98 204.98 120.79C196.98 106.93 168.98 58.42 164.98 51.49Z" id="dbIXvYA0k"></path><path d="M320 10C263.52 10 210.58 25.11 164.98 51.5C168.98 58.42 200.98 113.86 204.98 120.79C238.82 101.21 278.1 90 320 90C320 74 320 18 320 10Z" id="b1AitoqhxC"></path><path d="M630 320C630 263.52 614.89 210.58 588.51 164.98C581.58 168.98 526.14 200.98 519.21 204.98C538.79 238.82 550 278.1 550 320C566 320 622 320 630 320Z" id="avUeOrJII"></path><path d="M588.51 164.98C561.29 117.94 522.06 78.71 475.02 51.5C471.02 58.42 439.02 113.86 435.02 120.79C469.92 140.98 499.02 170.08 519.21 204.98C533.07 196.98 581.58 168.98 588.51 164.98Z" id="f4qm4qYM0C"></path><path d="M475.02 51.5C429.42 25.11 376.48 10 320 10C320 18 320 82 320 90C361.9 90 401.18 101.21 435.02 120.79C443.02 106.93 471.02 58.42 475.02 51.5Z" id="e1mf6jc30X"></path><path d="M10 320C10 376.48 25.11 429.42 51.5 475.02C58.42 471.02 113.86 439.02 120.79 435.02C101.21 401.18 90 361.9 90 320C74 320 18 320 10 320Z" id="arO87F3uT"></path><path d="M475.02 588.51C522.06 561.29 561.29 522.06 588.51 475.02C581.58 471.02 526.14 439.02 519.21 435.02C499.02 469.92 469.92 499.02 435.02 519.21C443.02 533.07 471.02 581.58 475.02 588.51Z" id="a2oCBmXcXE"></path><path d="M51.5 475.02C78.71 522.06 117.94 561.29 164.98 588.51C168.98 581.58 200.98 526.14 204.98 519.21C170.08 499.02 140.98 469.92 120.79 435.02C106.93 443.02 58.42 471.02 51.5 475.02Z" id="bfehXfOEi"></path><path d="M519.21 435.02C526.14 439.02 581.58 471.02 588.51 475.02C614.89 429.42 630 376.48 630 320C624.67 320 598 320 550 320C542.53 374.12 532.26 412.46 519.21 435.02Z" id="b14qv8Kpol"></path><path d="M320 630C376.48 630 429.42 614.89 475.02 588.51C471.02 581.58 439.02 526.14 435.02 519.21C401.18 538.79 361.9 550 320 550C320 566 320 622 320 630Z" id="a571Gyzmo4"></path><path d="M164.98 588.51C210.58 614.89 263.52 630 320 630C320 622 320 558 320 550C278.1 550 238.82 538.79 204.98 519.21C196.98 533.07 168.98 581.58 164.98 588.51Z" id="b2l90hv1s2"></path><path d="M471.3 203.62C471.02 203.25 469.59 201.39 467.02 198.05L495.82 181.43C497.78 184.04 498.87 185.49 499.09 185.78C510.16 200.51 519.22 216.01 526.02 231.85C526.17 232.19 526.89 233.86 528.18 236.87L499.28 253.56L496.6 247.08C486.73 227.18 478.3 212.7 471.3 203.62Z" id="bswPp1yBC"></path><path d="M476.17 199.87C486.71 213.54 495.59 228.54 502.28 244.73C504.09 243.68 518.56 235.32 520.37 234.28C513.48 218.22 504.55 203.28 494.18 189.47C490.58 191.55 477.97 198.83 476.17 199.87Z" id="c1jnUszCp"></path><path d="M392.92 143.4C392.49 143.22 390.33 142.33 386.44 140.72L403.13 111.82C406.14 113.11 407.81 113.83 408.15 113.98C423.99 120.78 439.49 129.84 454.22 140.91C454.51 141.13 455.96 142.22 458.57 144.18L441.95 172.98L436.38 168.7C417.55 156.03 403.07 147.6 392.92 143.4Z" id="i1vt9XjQfC"></path><path d="M440.13 163.83C441.17 162.03 449.49 147.62 450.53 145.82C436.72 135.45 421.78 126.52 405.72 119.63C405.02 120.83 401.54 126.86 395.27 137.72C416.06 148.1 431.02 156.8 440.13 163.83Z" id="eK4Z50hFt"></path><path d="M320 128.92C312.41 128.92 304.42 129.51 294.85 130.77C294.39 130.83 292.07 131.13 287.9 131.68L287.9 98.25C291.15 97.86 292.96 97.64 293.32 97.6C303.11 96.43 311.84 95.86 320 95.86C328.16 95.86 336.89 96.43 346.68 97.6C347.04 97.64 348.85 97.86 352.1 98.25L352.1 131.68L345.15 130.77C333.44 129.53 325.06 128.92 320 128.92Z" id="c4jrKBthe"></path><path d="M294.05 124.67C302.56 123.55 311.18 122.77 320 122.77C328.82 122.77 337.44 123.55 345.95 124.67C345.95 122.57 345.95 105.8 345.95 103.7C337.43 102.69 328.8 102.01 320 102.01C311.2 102.01 302.58 102.68 294.05 103.7C294.05 107.9 294.05 122.57 294.05 124.67Z" id="c1khMlMVKn"></path><path d="M509.23 345.15C510.5 335.58 511.08 327.58 511.08 320C511.08 312.42 510.49 304.42 509.23 294.85C509.17 294.39 508.87 292.07 508.32 287.9L541.76 287.9C542.14 291.15 542.36 292.96 542.4 293.32C543.57 303.11 544.14 311.84 544.14 320C544.14 328.16 543.57 336.89 542.4 346.68C542.36 347.04 542.14 348.85 541.75 352.1L508.32 352.1C508.87 347.93 509.17 345.61 509.23 345.15Z" id="a1aK6pQnBm"></path><path d="M515.33 345.95C517.43 345.95 534.2 345.95 536.3 345.95C537.31 337.43 537.99 328.8 537.99 320C537.99 311.2 537.31 302.58 536.3 294.05C534.2 294.05 517.43 294.05 515.33 294.05C516.45 302.56 517.23 311.18 517.23 320C517.23 328.82 516.45 337.44 515.33 345.95Z" id="b7tkxClMH"></path><path d="M97.6 346.68C96.43 336.89 95.86 328.16 95.86 320C95.86 311.84 96.43 303.11 97.6 293.32C97.64 292.96 97.86 291.15 98.24 287.9L131.68 287.9C131.13 292.07 130.83 294.39 130.77 294.85C129.51 304.42 128.92 312.42 128.92 320C128.92 327.58 129.51 335.58 130.77 345.15C130.83 345.61 131.13 347.93 131.68 352.1L98.25 352.1L98.25 352.1C97.86 348.85 97.64 347.04 97.6 346.68Z" id="bDibhbUXo"></path><path d="M124.67 294.05C122.57 294.05 105.8 294.05 103.7 294.05C102.69 302.58 102.01 311.21 102.01 320C102.01 328.8 102.69 337.42 103.7 345.95C105.8 345.95 122.57 345.95 124.67 345.95C123.55 337.44 122.77 328.82 122.77 320C122.77 311.18 123.55 302.56 124.67 294.05Z" id="b22L0bSCEU"></path><path d="M185.78 140.91C200.51 129.84 216.01 120.78 231.85 113.98C232.19 113.83 233.86 113.11 236.87 111.82L253.56 140.72C249.67 142.33 247.51 143.22 247.08 143.4C231.86 149.69 217.24 158.2 203.62 168.7C203.25 168.98 201.39 170.41 198.06 172.98L181.43 144.18C184.04 142.22 185.49 141.13 185.78 140.91Z" id="g5nEMFwpX3"></path><path d="M244.73 137.72C243.68 135.91 235.32 121.43 234.28 119.63C218.22 126.52 203.28 135.45 189.47 145.82C190.17 147.02 193.63 153.02 199.87 163.83C218.99 150.88 233.94 142.18 244.73 137.72Z" id="a1j3cDw1k7"></path><path d="M471.3 436.38C481.8 422.76 490.31 408.14 496.6 392.92C496.78 392.49 497.67 390.33 499.28 386.44L528.18 403.13C526.89 406.14 526.17 407.81 526.02 408.15C519.22 423.99 510.16 439.49 499.09 454.22C498.87 454.51 497.78 455.96 495.82 458.57L467.02 441.95C469.59 438.61 471.02 436.75 471.3 436.38Z" id="h28zDs3CuN"></path><path d="M502.28 395.27C495.59 411.46 486.71 426.46 476.17 440.13C477.97 441.17 492.38 449.49 494.18 450.53C504.55 436.72 513.48 421.78 520.38 405.72C516.76 403.63 504.09 396.32 502.28 395.27Z" id="d47TMfX2n"></path><path d="M293.32 542.4C292.96 542.36 291.15 542.14 287.9 541.76L287.9 508.32C292.07 508.87 294.39 509.17 294.85 509.23C304.42 510.5 312.41 511.08 320 511.08C327.59 511.08 335.58 510.49 345.15 509.23C345.61 509.17 347.93 508.87 352.1 508.32L352.1 541.76C348.85 542.14 347.04 542.36 346.68 542.4C336.89 543.57 328.16 544.14 320 544.14C311.84 544.14 303.11 543.57 293.32 542.4Z" id="a2Vu9VoSWA"></path><path d="M345.95 515.33C337.44 516.45 328.82 517.23 320 517.23C311.18 517.23 302.56 516.45 294.05 515.33C294.05 517.43 294.05 534.2 294.05 536.3C302.58 537.32 311.21 537.99 320 537.99C328.8 537.99 337.42 537.32 345.95 536.3C345.95 532.1 345.95 517.43 345.95 515.33Z" id="a3q862Mkr4"></path><path d="M392.92 496.6C408.14 490.31 422.76 481.8 436.38 471.3C436.75 471.02 438.61 469.59 441.95 467.02L458.57 495.82C455.96 497.78 454.51 498.87 454.22 499.09C439.49 510.16 423.99 519.22 408.15 526.02C407.81 526.17 406.14 526.89 403.13 528.18L386.44 499.28C390.33 497.67 392.49 496.78 392.92 496.6Z" id="fWbPUgDbT"></path><path d="M395.27 502.28C396.32 504.09 404.68 518.56 405.72 520.37C421.78 513.48 436.72 504.55 450.53 494.18C449.83 492.98 446.37 486.97 440.13 476.17C421.01 489.12 406.06 497.82 395.27 502.28Z" id="c7ZU4Olrse"></path><path d="M185.78 499.09C185.49 498.87 184.04 497.78 181.43 495.82L198.05 467.02C201.39 469.59 203.25 471.02 203.62 471.3C217.24 481.79 231.86 490.31 247.08 496.6C247.51 496.78 249.67 497.67 253.56 499.28L236.87 528.18L231.85 526.02C210.96 515.44 195.6 506.47 185.78 499.09Z" id="b59o3VNLxd"></path><path d="M199.87 476.17C198.83 477.97 190.51 492.38 189.47 494.18C203.28 504.55 218.22 513.48 234.28 520.38C234.98 519.17 238.46 513.14 244.73 502.28C223.94 491.9 208.99 483.2 199.87 476.17Z" id="a1GIbahm1"></path><path d="M113.98 408.15C113.83 407.81 113.12 406.14 111.82 403.13L140.72 386.44C142.33 390.33 143.22 392.49 143.4 392.92C149.69 408.14 158.2 422.76 168.7 436.38C168.98 436.75 170.41 438.61 172.98 441.94L144.18 458.57L140.91 454.22C127.49 434.07 118.51 418.71 113.98 408.15Z" id="cb48gDj0s"></path><path d="M137.72 395.27C135.91 396.32 121.43 404.68 119.63 405.72C126.52 421.78 135.45 436.72 145.82 450.53C147.02 449.83 153.02 446.37 163.83 440.13C150.88 421.01 142.18 406.06 137.72 395.27Z" id="j1hobrlrFN"></path><path d="M113.98 231.85C120.78 216.01 129.84 200.51 140.91 185.78C141.13 185.49 142.22 184.04 144.18 181.43L172.98 198.05C170.41 201.39 168.98 203.25 168.7 203.62C158.2 217.24 149.69 231.86 143.4 247.08C143.22 247.51 142.33 249.67 140.72 253.56L111.82 236.87C113.11 233.86 113.83 232.19 113.98 231.85Z" id="i96pnlqET"></path><path d="M137.72 244.73C144.41 228.55 153.29 213.54 163.83 199.87C162.03 198.83 147.62 190.51 145.82 189.47C135.45 203.28 126.52 218.22 119.63 234.28C123.24 236.37 135.91 243.68 137.72 244.73Z" id="cVP35vaNm"></path><path d="M460 201.54C462.41 201.54 464.84 200.67 466.76 198.91C470.82 195.17 471.09 188.85 467.36 184.78C463.5 180.58 459.42 176.49 455.22 172.64C451.15 168.9 444.82 169.17 441.09 173.24C437.35 177.31 437.62 183.63 441.69 187.37C445.47 190.84 449.15 194.52 452.63 198.3C454.6 200.45 457.29 201.54 460 201.54Z" id="el9TS2lHL"></path><path d="M320 140C349.75 140 379.22 147.41 405.23 161.42C410.1 164.04 416.16 162.22 418.78 157.36C421.4 152.49 419.58 146.43 414.72 143.81C385.8 128.23 353.05 120 320 120C209.72 120 120 209.72 120 320C120 365.93 135.96 410.79 164.93 446.32C166.91 448.74 169.79 450 172.69 450C174.91 450 177.15 449.26 179 447.75C183.28 444.26 183.92 437.96 180.43 433.68C154.36 401.71 140 361.34 140 320C140 220.75 220.75 140 320 140Z" id="c3XpzHOpEQ"></path><path d="M482.62 221.19C477.76 223.81 475.94 229.87 478.56 234.73C492.59 260.75 500 290.24 500 320C500 419.25 419.25 500 320 500C278.66 500 238.29 485.64 206.32 459.56C202.04 456.08 195.74 456.71 192.25 460.99C188.76 465.27 189.4 471.57 193.68 475.06C229.21 504.04 274.07 520 320 520C430.28 520 520 430.28 520 320C520 286.94 511.76 254.17 496.17 225.25C493.55 220.38 487.49 218.57 482.62 221.19Z" id="b45fwxrR9"></path><path d="M480.03 42.84C431.59 14.82 376.25 0 320 0C263.75 0 208.41 14.82 159.97 42.84C111.43 70.93 70.93 111.43 42.84 159.97C14.81 208.41 0 263.75 0 320C0 376.26 14.81 431.59 42.84 480.03C70.93 528.57 111.43 569.07 159.97 597.16C208.41 625.19 263.75 640 320 640C376.25 640 431.59 625.19 480.03 597.16C528.57 569.08 569.07 528.57 597.16 480.03C625.19 431.59 640 376.26 640 320C640 263.75 625.19 208.41 597.16 159.97C569.07 111.43 528.57 70.93 480.03 42.84ZM430.01 510.56C396.72 529.82 358.68 540 320 540C281.32 540 243.28 529.82 209.99 510.56C176.61 491.24 148.76 463.39 129.44 430.01C110.18 396.72 100 358.68 100 320C100 281.32 110.18 243.28 129.44 209.99C148.76 176.61 176.61 148.76 209.99 129.44C243.28 110.18 281.32 100 320 100C358.68 100 396.72 110.18 430.01 129.44C463.39 148.76 491.24 176.61 510.56 209.99C529.82 243.28 540 281.32 540 320C540 358.68 529.82 396.72 510.56 430.01C491.24 463.39 463.39 491.24 430.01 510.56ZM553.26 196.88C572.13 185.98 582.61 179.93 584.71 178.72C606.26 219.06 618.31 264.06 619.83 310C613.83 310 565.8 310 559.79 310C558.32 274.62 549.05 239.98 532.7 208.75C535.44 207.16 542.29 203.21 553.26 196.88ZM541.77 180.41C530.32 187.02 523.96 190.7 522.69 191.43C503.74 161.62 478.38 136.26 448.57 117.31C449.3 116.04 452.98 109.68 459.59 98.23C470.99 78.48 477.33 67.5 478.59 65.31C517.48 89.58 550.42 122.52 574.69 161.41C570.3 163.94 559.33 170.28 541.77 180.41ZM330 80.21C330 74.2 330 26.17 330 20.17C375.94 21.69 420.94 33.74 461.28 55.29C459.28 58.76 449.27 76.1 431.25 107.3C387.34 90.22 353.59 81.19 330 80.21ZM310 80.21C274.62 81.68 239.98 90.95 208.75 107.3C205.74 102.1 181.72 60.49 178.72 55.29C219.06 33.74 264.06 21.7 310 20.17C310 32.17 310 74.2 310 80.21ZM180.41 98.23C187.02 109.68 190.7 116.04 191.43 117.32C161.62 136.26 136.26 161.62 117.31 191.43C114.21 189.64 98.7 180.69 70.79 164.57C67.5 162.67 65.67 161.62 65.31 161.41C89.58 122.52 122.52 89.58 161.41 65.31C163.94 69.7 170.28 80.67 180.41 98.23ZM86.74 196.88C99.08 204 105.93 207.95 107.3 208.75C90.95 239.98 81.68 274.62 80.21 310C74.2 310 26.17 310 20.17 310C21.7 264.06 33.74 219.06 55.29 178.72C59.49 181.14 69.97 187.19 86.74 196.88ZM107.3 431.25C105.93 432.05 99.08 436 86.74 443.13C67.87 454.02 57.39 460.07 55.29 461.28C33.74 420.94 21.7 375.94 20.17 330C24.17 330 44.18 330 80.21 330C87.37 376.68 96.4 410.43 107.3 431.25ZM70.79 475.43C98.7 459.31 114.21 450.36 117.32 448.57C136.26 478.38 161.62 503.74 191.43 522.69C190.7 523.96 187.02 530.32 180.41 541.77C169.01 561.52 162.67 572.5 161.41 574.69C122.52 550.42 89.58 517.48 65.31 478.59C66.04 478.17 67.86 477.12 70.79 475.43ZM310 559.79C310 565.8 310 613.83 310 619.83C264.06 618.3 219.06 606.26 178.72 584.71C180.72 581.24 190.73 563.9 208.75 532.7C252.66 549.78 286.41 558.81 310 559.79ZM330 559.79C365.38 558.32 400.02 549.05 431.25 532.7C434.26 537.9 458.28 579.51 461.28 584.71C420.94 606.26 375.94 618.31 330 619.83C330 607.83 330 565.8 330 559.79ZM459.59 541.77C452.98 530.32 449.3 523.96 448.57 522.69C478.38 503.74 503.74 478.38 522.68 448.57C523.96 449.3 530.32 452.97 541.77 459.59C561.52 470.99 572.5 477.33 574.69 478.59C550.42 517.48 517.48 550.42 478.59 574.69C476.06 570.3 469.72 559.33 459.59 541.77ZM553.26 443.13C540.92 436 534.07 432.05 532.7 431.25C549.05 400.02 558.32 365.38 559.79 330C565.8 330 613.83 330 619.83 330C618.31 375.94 606.26 420.94 584.71 461.28C580.51 458.86 570.03 452.81 553.26 443.13Z" id="d1YnDFDH11"></path></defs><g><g><use xlink:href="#c2qJ9qw25" opacity="1" fill="#9bdc6e" fill-opacity="1"></use><g><use xlink:href="#c2qJ9qw25" opacity="1" fill-opacity="0" stroke="#000000" stroke-width="1" stroke-opacity="0"></use></g></g><g><use xlink:href="#c3n5bn8QBL" opacity="1" fill="#eff2fa" fill-opacity="1"></use><g><use xlink:href="#c3n5bn8QBL" opacity="1" fill-opacity="0" stroke="#000000" stroke-width="1" stroke-opacity="0"></use></g></g><g><use xlink:href="#bf4bhxANi" opacity="1" fill="#9bdc6e" fill-opacity="1"></use><g><use xlink:href="#bf4bhxANi" opacity="1" fill-opacity="0" stroke="#000000" stroke-width="1" stroke-opacity="0"></use></g></g><g><use xlink:href="#dbIXvYA0k" opacity="1" fill="#eff2fa" fill-opacity="1"></use><g><use xlink:href="#dbIXvYA0k" opacity="1" fill-opacity="0" stroke="#000000" stroke-width="1" stroke-opacity="0"></use></g></g><g><use xlink:href="#b1AitoqhxC" opacity="1" fill="#9bdc6e" fill-opacity="1"></use><g><use xlink:href="#b1AitoqhxC" opacity="1" fill-opacity="0" stroke="#000000" stroke-width="1" stroke-opacity="0"></use></g></g><g><use xlink:href="#avUeOrJII" opacity="1" fill="#eff2fa" fill-opacity="1"></use><g><use xlink:href="#avUeOrJII" opacity="1" fill-opacity="0" stroke="#000000" stroke-width="1" stroke-opacity="0"></use></g></g><g><use xlink:href="#f4qm4qYM0C" opacity="1" fill="#9bdc6e" fill-opacity="1"></use><g><use xlink:href="#f4qm4qYM0C" opacity="1" fill-opacity="0" stroke="#000000" stroke-width="1" stroke-opacity="0"></use></g></g><g><use xlink:href="#e1mf6jc30X" opacity="1" fill="#eff2fa" fill-opacity="1"></use><g><use xlink:href="#e1mf6jc30X" opacity="1" fill-opacity="0" stroke="#000000" stroke-width="1" stroke-opacity="0"></use></g></g><g><use xlink:href="#arO87F3uT" opacity="1" fill="#eff2fa" fill-opacity="1"></use><g><use xlink:href="#arO87F3uT" opacity="1" fill-opacity="0" stroke="#000000" stroke-width="1" stroke-opacity="0"></use></g></g><g><use xlink:href="#a2oCBmXcXE" opacity="1" fill="#eff2fa" fill-opacity="1"></use><g><use xlink:href="#a2oCBmXcXE" opacity="1" fill-opacity="0" stroke="#000000" stroke-width="1" stroke-opacity="0"></use></g></g><g><use xlink:href="#bfehXfOEi" opacity="1" fill="#9bdc6e" fill-opacity="1"></use><g><use xlink:href="#bfehXfOEi" opacity="1" fill-opacity="0" stroke="#000000" stroke-width="1" stroke-opacity="0"></use></g></g><g><use xlink:href="#b14qv8Kpol" opacity="1" fill="#9bdc6e" fill-opacity="1"></use><g><use xlink:href="#b14qv8Kpol" opacity="1" fill-opacity="0" stroke="#000000" stroke-width="1" stroke-opacity="0"></use></g></g><g><use xlink:href="#a571Gyzmo4" opacity="1" fill="#9bdc6e" fill-opacity="1"></use><g><use xlink:href="#a571Gyzmo4" opacity="1" fill-opacity="0" stroke="#000000" stroke-width="1" stroke-opacity="0"></use></g></g><g><use xlink:href="#b2l90hv1s2" opacity="1" fill="#eff2fa" fill-opacity="1"></use><g><use xlink:href="#b2l90hv1s2" opacity="1" fill-opacity="0" stroke="#000000" stroke-width="1" stroke-opacity="0"></use></g></g><g><use xlink:href="#bswPp1yBC" opacity="1" fill="#eff2fa" fill-opacity="1"></use><g><use xlink:href="#bswPp1yBC" opacity="1" fill-opacity="0" stroke="#000000" stroke-width="1" stroke-opacity="0"></use></g></g><g><use xlink:href="#c1jnUszCp" opacity="1" fill="#eff2fa" fill-opacity="1"></use><g><use xlink:href="#c1jnUszCp" opacity="1" fill-opacity="0" stroke="#000000" stroke-width="1" stroke-opacity="0"></use></g></g><g><use xlink:href="#i1vt9XjQfC" opacity="1" fill="#eff2fa" fill-opacity="1"></use><g><use xlink:href="#i1vt9XjQfC" opacity="1" fill-opacity="0" stroke="#000000" stroke-width="1" stroke-opacity="0"></use></g></g><g><use xlink:href="#eK4Z50hFt" opacity="1" fill="#eff2fa" fill-opacity="1"></use><g><use xlink:href="#eK4Z50hFt" opacity="1" fill-opacity="0" stroke="#000000" stroke-width="1" stroke-opacity="0"></use></g></g><g><use xlink:href="#c4jrKBthe" opacity="1" fill="#eff2fa" fill-opacity="1"></use><g><use xlink:href="#c4jrKBthe" opacity="1" fill-opacity="0" stroke="#000000" stroke-width="1" stroke-opacity="0"></use></g></g><g><use xlink:href="#c1khMlMVKn" opacity="1" fill="#eff2fa" fill-opacity="1"></use><g><use xlink:href="#c1khMlMVKn" opacity="1" fill-opacity="0" stroke="#000000" stroke-width="1" stroke-opacity="0"></use></g></g><g><use xlink:href="#a1aK6pQnBm" opacity="1" fill="#eff2fa" fill-opacity="1"></use><g><use xlink:href="#a1aK6pQnBm" opacity="1" fill-opacity="0" stroke="#000000" stroke-width="1" stroke-opacity="0"></use></g></g><g><use xlink:href="#b7tkxClMH" opacity="1" fill="#eff2fa" fill-opacity="1"></use><g><use xlink:href="#b7tkxClMH" opacity="1" fill-opacity="0" stroke="#000000" stroke-width="1" stroke-opacity="0"></use></g></g><g><use xlink:href="#bDibhbUXo" opacity="1" fill="#eff2fa" fill-opacity="1"></use><g><use xlink:href="#bDibhbUXo" opacity="1" fill-opacity="0" stroke="#000000" stroke-width="1" stroke-opacity="0"></use></g></g><g><use xlink:href="#b22L0bSCEU" opacity="1" fill="#eff2fa" fill-opacity="1"></use><g><use xlink:href="#b22L0bSCEU" opacity="1" fill-opacity="0" stroke="#000000" stroke-width="1" stroke-opacity="0"></use></g></g><g><use xlink:href="#g5nEMFwpX3" opacity="1" fill="#eff2fa" fill-opacity="1"></use><g><use xlink:href="#g5nEMFwpX3" opacity="1" fill-opacity="0" stroke="#000000" stroke-width="1" stroke-opacity="0"></use></g></g><g><use xlink:href="#a1j3cDw1k7" opacity="1" fill="#eff2fa" fill-opacity="1"></use><g><use xlink:href="#a1j3cDw1k7" opacity="1" fill-opacity="0" stroke="#000000" stroke-width="1" stroke-opacity="0"></use></g></g><g><use xlink:href="#h28zDs3CuN" opacity="1" fill="#eff2fa" fill-opacity="1"></use><g><use xlink:href="#h28zDs3CuN" opacity="1" fill-opacity="0" stroke="#000000" stroke-width="1" stroke-opacity="0"></use></g></g><g><use xlink:href="#d47TMfX2n" opacity="1" fill="#eff2fa" fill-opacity="1"></use><g><use xlink:href="#d47TMfX2n" opacity="1" fill-opacity="0" stroke="#000000" stroke-width="1" stroke-opacity="0"></use></g></g><g><use xlink:href="#a2Vu9VoSWA" opacity="1" fill="#eff2fa" fill-opacity="1"></use><g><use xlink:href="#a2Vu9VoSWA" opacity="1" fill-opacity="0" stroke="#000000" stroke-width="1" stroke-opacity="0"></use></g></g><g><use xlink:href="#a3q862Mkr4" opacity="1" fill="#eff2fa" fill-opacity="1"></use><g><use xlink:href="#a3q862Mkr4" opacity="1" fill-opacity="0" stroke="#000000" stroke-width="1" stroke-opacity="0"></use></g></g><g><use xlink:href="#fWbPUgDbT" opacity="1" fill="#eff2fa" fill-opacity="1"></use><g><use xlink:href="#fWbPUgDbT" opacity="1" fill-opacity="0" stroke="#000000" stroke-width="1" stroke-opacity="0"></use></g></g><g><use xlink:href="#c7ZU4Olrse" opacity="1" fill="#eff2fa" fill-opacity="1"></use><g><use xlink:href="#c7ZU4Olrse" opacity="1" fill-opacity="0" stroke="#000000" stroke-width="1" stroke-opacity="0"></use></g></g><g><use xlink:href="#b59o3VNLxd" opacity="1" fill="#eff2fa" fill-opacity="1"></use><g><use xlink:href="#b59o3VNLxd" opacity="1" fill-opacity="0" stroke="#000000" stroke-width="1" stroke-opacity="0"></use></g></g><g><use xlink:href="#a1GIbahm1" opacity="1" fill="#eff2fa" fill-opacity="1"></use><g><use xlink:href="#a1GIbahm1" opacity="1" fill-opacity="0" stroke="#000000" stroke-width="1" stroke-opacity="0"></use></g></g><g><use xlink:href="#cb48gDj0s" opacity="1" fill="#eff2fa" fill-opacity="1"></use><g><use xlink:href="#cb48gDj0s" opacity="1" fill-opacity="0" stroke="#000000" stroke-width="1" stroke-opacity="0"></use></g></g><g><use xlink:href="#j1hobrlrFN" opacity="1" fill="#eff2fa" fill-opacity="1"></use><g><use xlink:href="#j1hobrlrFN" opacity="1" fill-opacity="0" stroke="#000000" stroke-width="1" stroke-opacity="0"></use></g></g><g><use xlink:href="#i96pnlqET" opacity="1" fill="#eff2fa" fill-opacity="1"></use><g><use xlink:href="#i96pnlqET" opacity="1" fill-opacity="0" stroke="#000000" stroke-width="1" stroke-opacity="0"></use></g></g><g><use xlink:href="#cVP35vaNm" opacity="1" fill="#eff2fa" fill-opacity="1"></use><g><use xlink:href="#cVP35vaNm" opacity="1" fill-opacity="0" stroke="#000000" stroke-width="1" stroke-opacity="0"></use></g></g><g><use xlink:href="#el9TS2lHL" opacity="1" fill="#2d2b29" fill-opacity="1"></use><g><use xlink:href="#el9TS2lHL" opacity="1" fill-opacity="0" stroke="#000000" stroke-width="1" stroke-opacity="0"></use></g></g><g><use xlink:href="#c3XpzHOpEQ" opacity="1" fill="#2d2b29" fill-opacity="1"></use><g><use xlink:href="#c3XpzHOpEQ" opacity="1" fill-opacity="0" stroke="#000000" stroke-width="1" stroke-opacity="0"></use></g></g><g><use xlink:href="#b45fwxrR9" opacity="1" fill="#2d2b29" fill-opacity="1"></use><g><use xlink:href="#b45fwxrR9" opacity="1" fill-opacity="0" stroke="#000000" stroke-width="1" stroke-opacity="0"></use></g></g><g><use xlink:href="#d1YnDFDH11" opacity="1" fill="#2d2b29" fill-opacity="1"></use><g><use xlink:href="#d1YnDFDH11" opacity="1" fill-opacity="0" stroke="#000000" stroke-width="1" stroke-opacity="0"></use></g></g></g></svg>